<svg width="109" height="84" viewBox="0 0 109 84" fill="none" xmlns="http://www.w3.org/2000/svg">
<path d="M93.6167 47.4892C98.1499 47.4892 101.825 43.8144 101.825 39.2812C101.825 34.7481 98.1499 31.0732 93.6167 31.0732C89.0836 31.0732 85.4087 34.7481 85.4087 39.2812C85.4087 43.8144 89.0836 47.4892 93.6167 47.4892Z" fill="#F2F2F2"/>
<path d="M93.6167 41.4411C94.8097 41.4411 95.7767 40.474 95.7767 39.2811C95.7767 38.0882 94.8097 37.1211 93.6167 37.1211C92.4238 37.1211 91.4567 38.0882 91.4567 39.2811C91.4567 40.474 92.4238 41.4411 93.6167 41.4411Z" fill="#E6E6E6"/>
<path d="M93.2221 39.3274C94.132 40.0697 94.4092 41.2396 94.2399 42.3692C94.0319 43.6082 93.3891 44.7325 92.4268 45.5403C91.3448 46.502 90.0251 47.1518 88.7517 47.8172C87.5816 48.4144 86.4571 49.097 85.3874 49.8595C81.2919 52.8361 78.1978 57.0745 76.427 61.8043C74.6592 66.526 74.1849 71.8853 75.5282 76.779C76.1928 79.2001 77.5374 81.8124 80.0422 82.7235C82.0388 83.4497 84.7648 82.9819 85.7815 80.9241C86.8735 78.7136 85.3499 76.2288 83.3872 75.1315C80.8431 73.709 77.8042 74.7484 75.516 76.1883C72.9967 77.7735 70.9716 80.0484 68.3414 81.4691C67.1575 82.1289 65.8401 82.5132 64.4872 82.5935C63.2448 82.6424 62.0046 82.4508 60.8349 82.0292C58.4079 81.145 56.3186 79.5232 54.86 77.3914C53.1894 74.963 52.4416 71.9861 52.3052 69.07C52.0001 62.5455 54.5775 56.4416 56.6454 50.3909C57.7568 47.2401 58.5894 43.9977 59.1335 40.7012C59.651 37.388 59.8352 34.0313 59.6833 30.6813C59.5465 27.7192 59.2543 24.6217 57.9469 21.9163C56.7973 19.5374 54.6963 17.5904 52.0401 17.0996C50.8427 16.8646 49.602 17.0071 48.4891 17.5075C48.1102 17.6803 48.4392 18.239 48.8162 18.067C51.1669 16.9946 53.9453 18.038 55.6815 19.7695C57.709 21.7913 58.4535 24.7772 58.7841 27.5322C59.5271 34.0615 58.9416 40.6736 57.063 46.9707C55.2601 53.0948 52.4242 58.9632 51.7698 65.3795C51.4712 68.3073 51.6246 71.334 52.5604 74.1415C53.3633 76.6423 54.8688 78.8592 56.8973 80.5277C58.8072 82.0717 61.1568 83.1237 63.6303 83.2409C66.4068 83.3724 68.8416 82.1346 70.9958 80.488C73.3029 78.7244 75.4256 76.5484 78.2203 75.5596C79.4944 75.1088 80.9456 74.8985 82.2538 75.3324C83.376 75.7158 84.328 76.4812 84.9435 77.4949C85.5117 78.4397 85.7212 79.6209 85.2028 80.6358C84.7153 81.59 83.7638 82.142 82.7337 82.3309C81.643 82.5238 80.5191 82.3328 79.5533 81.7905C78.4249 81.146 77.5993 80.0645 77.0208 78.9218C75.8673 76.6431 75.4797 73.9306 75.4209 71.4014C75.3694 68.9308 75.686 66.4664 76.3601 64.0891C77.7016 59.28 80.4095 54.9635 84.1554 51.6628C85.0991 50.8407 86.1086 50.0974 87.1738 49.4404C88.3359 48.7241 89.5763 48.1518 90.761 47.476C91.9267 46.811 93.0755 46.0164 93.8783 44.9221C94.5625 43.9843 94.9321 42.8537 94.9339 41.6928C94.9461 41.1588 94.84 40.6288 94.6233 40.1406C94.4066 39.6525 94.0845 39.2183 93.6803 38.8692C93.3598 38.6078 92.8987 39.0636 93.2221 39.3274Z" fill="#CCCCCC"/>
<path d="M16.5955 77.0811C19.4655 78.9362 22.7856 79.977 26.201 80.0921C26.1401 80.2367 26.0716 80.378 25.9958 80.5155C25.5983 81.2494 25.0364 81.8814 24.3542 82.3623C23.5464 82.9308 22.598 83.2665 21.6125 83.3329C20.6269 83.3992 19.6421 83.1937 18.7654 82.7386C17.8887 82.2835 17.1538 81.5965 16.6409 80.7523C16.128 79.9081 15.8567 78.9393 15.8568 77.9515V77.0811H16.5955Z" fill="#2E4053"/>
<path d="M36.7418 77.3359V77.9515C36.7423 79.15 36.3434 80.3145 35.6082 81.261C34.873 82.2074 33.8434 82.882 32.682 83.178C31.5207 83.474 30.2938 83.3747 29.1953 82.8956C28.0967 82.4166 27.1891 81.5852 26.6157 80.5327C26.5367 80.392 26.4653 80.247 26.4019 80.0986C26.5595 80.1029 26.7151 80.1051 26.8728 80.1051C30.3548 80.1091 33.7702 79.1508 36.7418 77.3359Z" fill="#2E4053"/>
<path d="M44.0081 12.2382C43.8461 12.2144 43.6819 12.1993 43.5178 12.1885C45.3832 16.4875 45.5124 21.3416 43.8785 25.7338C44.0427 25.7144 44.2047 25.6885 44.3667 25.6582C45.9486 25.3517 47.3703 24.4938 48.3789 23.2372C49.3875 21.9807 49.9174 20.4069 49.8744 18.7962C49.8313 17.1855 49.2181 15.6424 48.1439 14.4414C47.0696 13.2405 45.6041 12.4598 44.0081 12.2382Z" fill="#2E4053"/>
<path d="M10.2278 12.1885C10.0637 12.1993 9.89948 12.2144 9.73748 12.2382C8.14151 12.4597 6.67595 13.2405 5.60171 14.4414C4.52747 15.6424 3.91424 17.1855 3.8712 18.7962C3.82817 20.4069 4.35811 21.9807 5.36669 23.2372C6.37526 24.4938 7.79703 25.3517 9.37889 25.6582C9.54089 25.6885 9.70289 25.7144 9.8671 25.7338C8.23316 21.3416 8.36242 16.4875 10.2278 12.1885Z" fill="#2E4053"/>
<path d="M44.008 12.2381C42.2286 7.98718 38.9325 4.54949 34.7602 2.59288C30.5878 0.636264 25.8372 0.300434 21.4311 1.65063C17.025 3.00083 13.2781 5.94064 10.9183 9.89895C8.5585 13.8573 7.75434 18.5514 8.66203 23.0695C9.56971 27.5875 12.1244 31.6069 15.8299 34.3467C19.5353 37.0865 24.1269 38.3511 28.7126 37.8948C33.2982 37.4385 37.5506 35.294 40.6435 31.8778C43.7365 28.4616 45.4491 24.0176 45.4487 19.4093C45.4479 16.9471 44.9582 14.5096 44.008 12.2381ZM43.8784 25.7338C42.2984 29.9812 39.1857 33.4833 35.1531 35.5509C31.1204 37.6185 26.4599 38.1018 22.0889 36.9056C17.7178 35.7095 13.9528 32.9205 11.5348 29.0877C9.11682 25.2549 8.22106 20.6558 9.02382 16.1957C9.82658 11.7356 12.2697 7.73751 15.8723 4.98832C19.475 2.23913 23.9762 0.938001 28.49 1.34101C33.0038 1.74402 37.2033 3.82197 40.262 7.1659C43.3206 10.5098 45.0168 14.8775 45.0167 19.4093C45.0161 21.5683 44.6306 23.71 43.8784 25.7338Z" fill="#2E4053"/>
<path d="M36.3768 15.1973H17.3688C16.3663 15.1973 15.4048 15.5955 14.6959 16.3044C13.987 17.0133 13.5888 17.9747 13.5888 18.9773C13.5888 19.9798 13.987 20.9412 14.6959 21.6501C15.4048 22.359 16.3663 22.7573 17.3688 22.7573H36.3768C37.3793 22.7573 38.3407 22.359 39.0496 21.6501C39.7585 20.9412 40.1568 19.9798 40.1568 18.9773C40.1568 17.9747 39.7585 17.0133 39.0496 16.3044C38.3407 15.5955 37.3793 15.1973 36.3768 15.1973Z" fill="#2E4053"/>
<path d="M26.8728 41.6572C21.7947 41.6595 16.919 43.6489 13.2888 47.1998C9.65852 50.7506 7.56188 55.5811 7.44731 60.6579C7.33273 65.7348 9.20932 70.6549 12.6757 74.3659C16.142 78.0769 20.923 80.2842 25.9958 80.5156C26.2011 80.5264 26.4084 80.5329 26.6158 80.5329C26.7021 80.5372 26.7864 80.5372 26.8728 80.5372C32.0286 80.5372 36.9732 78.4891 40.6189 74.8434C44.2646 71.1977 46.3128 66.253 46.3128 61.0972C46.3128 55.9414 44.2646 50.9968 40.6189 47.3511C36.9732 43.7054 32.0286 41.6572 26.8728 41.6572ZM36.7418 77.3361C33.7702 79.151 30.3548 80.1093 26.8728 80.1052C26.7151 80.1052 26.5595 80.1031 26.4019 80.0987C26.3349 80.0987 26.268 80.0966 26.2011 80.0923C21.6366 79.9336 17.2817 78.1377 13.9322 75.0328C10.5827 71.928 8.46235 67.7214 7.95869 63.1821C7.45502 58.6427 8.60166 54.0737 11.1891 50.3101C13.7765 46.5465 17.6318 43.8396 22.0505 42.6842C26.4691 41.5289 31.156 42.0021 35.2545 44.0176C39.3529 46.033 42.5893 49.4559 44.372 53.6608C46.1548 57.8657 46.3649 62.5718 44.9639 66.9188C43.5629 71.2658 40.6444 74.9635 36.7418 77.3361Z" fill="#2E4053"/>
<path d="M40.5168 56.3093H32.0208C31.4288 56.3093 30.8611 56.0741 30.4425 55.6555C30.0239 55.2369 29.7887 54.6692 29.7887 54.0773C29.7887 53.4853 30.0239 52.9176 30.4425 52.499C30.8611 52.0804 31.4288 51.8452 32.0208 51.8452H40.5168C41.1088 51.8452 41.6765 52.0804 42.0951 52.499C42.5137 52.9176 42.7488 53.4853 42.7488 54.0773C42.7488 54.6692 42.5137 55.2369 42.0951 55.6555C41.6765 56.0741 41.1088 56.3093 40.5168 56.3093Z" fill="#2E4053"/>
<path d="M32.5871 55.2099C33.2128 55.2099 33.7199 54.7028 33.7199 54.0771C33.7199 53.4515 33.2128 52.9443 32.5871 52.9443C31.9615 52.9443 31.4543 53.4515 31.4543 54.0771C31.4543 54.7028 31.9615 55.2099 32.5871 55.2099Z" fill="#F2F2F2"/>
<path d="M36.2687 55.2099C36.8943 55.2099 37.4015 54.7028 37.4015 54.0771C37.4015 53.4515 36.8943 52.9443 36.2687 52.9443C35.6431 52.9443 35.1359 53.4515 35.1359 54.0771C35.1359 54.7028 35.6431 55.2099 36.2687 55.2099Z" fill="#F2F2F2"/>
<path d="M39.9504 55.2099C40.5761 55.2099 41.0832 54.7028 41.0832 54.0771C41.0832 53.4515 40.5761 52.9443 39.9504 52.9443C39.3248 52.9443 38.8176 53.4515 38.8176 54.0771C38.8176 54.7028 39.3248 55.2099 39.9504 55.2099Z" fill="#00EAFF"/>
<path d="M108.124 83.7727H0.276433C0.208352 83.7725 0.143128 83.7453 0.0950564 83.6971C0.0469852 83.6489 0.019989 83.5836 0.019989 83.5155C0.019989 83.4474 0.0469852 83.3821 0.0950564 83.3339C0.143128 83.2857 0.208352 83.2585 0.276433 83.2583H108.124C108.192 83.2583 108.258 83.2854 108.306 83.3336C108.354 83.3819 108.381 83.4473 108.381 83.5155C108.381 83.5837 108.354 83.6491 108.306 83.6973C108.258 83.7456 108.192 83.7727 108.124 83.7727Z" fill="#CCCCCC"/>
</svg>
