<svg width="200" height="76" viewBox="0 0 200 76" fill="none" xmlns="http://www.w3.org/2000/svg">
<path d="M53.4574 62.8421V18.7314C53.4588 17.479 53.9569 16.2783 54.8425 15.3926C55.7281 14.507 56.9287 14.0088 58.1812 14.0073L121.99 14.0073C123.243 14.0087 124.444 14.5069 125.329 15.3925C126.215 16.2782 126.713 17.4789 126.714 18.7314V62.8421C126.713 64.0945 126.215 65.2953 125.329 66.1809C124.444 67.0665 123.243 67.5647 121.99 67.5661H58.1812C56.9287 67.5646 55.7281 67.0664 54.8425 66.1808C53.957 65.2951 53.4588 64.0945 53.4574 62.8421Z" fill="#2E4053"/>
<path d="M56.1345 62.8V18.7732C56.1349 18.4313 56.2709 18.1034 56.5127 17.8616C56.7545 17.6198 57.0824 17.4838 57.4243 17.4834L122.051 17.4834C122.393 17.4838 122.721 17.6198 122.963 17.8616C123.204 18.1034 123.34 18.4313 123.341 18.7732V62.8C123.34 63.142 123.204 63.4698 122.963 63.7117C122.721 63.9535 122.393 64.0895 122.051 64.0898H57.4243C57.0824 64.0895 56.7545 63.9535 56.5127 63.7117C56.2709 63.4698 56.1349 63.142 56.1345 62.8Z" fill="white"/>
<path d="M75.9091 50.7701C75.5099 50.0942 74.956 49.5227 74.2929 49.1027C73.6298 48.6826 72.8765 48.4259 72.0949 48.3537C71.3133 48.2815 70.5257 48.3959 69.7968 48.6873C69.068 48.9788 68.4188 49.4391 67.9026 50.0304L67.5833 49.7515C68.1436 49.1095 68.8482 48.6098 69.6393 48.2933C70.4304 47.9768 71.2853 47.8527 72.1338 47.931C72.9822 48.0094 73.7999 48.288 74.5196 48.7441C75.2394 49.2001 75.8406 49.8204 76.2738 50.5541L75.9091 50.7701Z" fill="#E6E6E6"/>
<path d="M76.1081 56.2921L75.7562 56.0557C76.2773 55.2786 76.568 54.3701 76.5949 53.4348C76.6219 52.4996 76.3838 51.5759 75.9083 50.7701L76.273 50.5542C76.7893 51.4289 77.0478 52.4317 77.0186 53.447C76.9894 54.4622 76.6738 55.4486 76.1081 56.2921Z" fill="#1574DA"/>
<path d="M67.6268 56.8826C66.7506 55.904 66.2624 54.6389 66.2543 53.3254C66.2461 52.0119 66.7185 50.7408 67.5826 49.7515L67.9018 50.0304C67.1057 50.9418 66.6704 52.1129 66.6778 53.323C66.6853 54.5332 67.135 55.6988 67.9423 56.6003L67.6268 56.8826Z" fill="#1574DA"/>
<path d="M71.6376 58.6755C70.8806 58.6749 70.1322 58.5149 69.4412 58.2059C68.7502 57.8969 68.132 57.4459 67.6268 56.8822L67.9426 56.5999C68.4466 57.163 69.0726 57.6034 69.7727 57.8876C70.4729 58.1718 71.2288 58.2922 71.9826 58.2397C72.7365 58.1872 73.4684 57.9631 74.1224 57.5846C74.7764 57.2061 75.3353 56.6831 75.7564 56.0557L76.1082 56.2921C75.6161 57.026 74.9508 57.6273 74.1711 58.043C73.3914 58.4586 72.5213 58.6759 71.6377 58.6755H71.6376Z" fill="#1574DA"/>
<path d="M94.0092 50.7701C93.61 50.0942 93.0561 49.5227 92.393 49.1027C91.7299 48.6826 90.9766 48.4259 90.195 48.3537C89.4134 48.2815 88.6258 48.3959 87.8969 48.6873C87.1681 48.9788 86.5189 49.4391 86.0027 50.0304L85.6834 49.7515C86.2437 49.1095 86.9483 48.6098 87.7394 48.2933C88.5305 47.9768 89.3854 47.8527 90.2339 47.931C91.0823 48.0094 91.9 48.288 92.6197 48.7441C93.3395 49.2001 93.9407 49.8204 94.3739 50.5541L94.0092 50.7701Z" fill="#E6E6E6"/>
<path d="M94.2081 56.2921L93.8563 56.0557C94.3773 55.2786 94.6681 54.3701 94.695 53.4348C94.7219 52.4996 94.4839 51.5759 94.0084 50.7701L94.3731 50.5542C94.8894 51.4289 95.1479 52.4317 95.1187 53.447C95.0895 54.4622 94.7738 55.4486 94.2081 56.2921Z" fill="#E6E6E6"/>
<path d="M85.7268 56.8826C84.8506 55.904 84.3624 54.6389 84.3543 53.3254C84.3461 52.0119 84.8186 50.7408 85.6826 49.7515L86.0018 50.0304C85.2057 50.9418 84.7704 52.1129 84.7778 53.323C84.7853 54.5332 85.235 55.6988 86.0423 56.6003L85.7268 56.8826Z" fill="#1574DA"/>
<path d="M89.7376 58.6755C88.9806 58.6749 88.2323 58.5149 87.5413 58.2059C86.8502 57.8969 86.232 57.4459 85.7268 56.8822L86.0426 56.5999C86.5466 57.163 87.1726 57.6034 87.8728 57.8876C88.573 58.1718 89.3288 58.2922 90.0827 58.2397C90.8365 58.1872 91.5684 57.9631 92.2224 57.5846C92.8765 57.2061 93.4353 56.6831 93.8564 56.0557L94.2083 56.2921C93.7161 57.026 93.0508 57.6273 92.2711 58.043C91.4914 58.4586 90.6213 58.6759 89.7378 58.6755H89.7376Z" fill="#E6E6E6"/>
<path d="M112.109 50.7701C111.71 50.0942 111.156 49.5227 110.493 49.1027C109.83 48.6826 109.077 48.4259 108.295 48.3537C107.513 48.2815 106.726 48.3959 105.997 48.6873C105.268 48.9788 104.619 49.4391 104.103 50.0304L103.783 49.7515C104.344 49.1095 105.048 48.6098 105.839 48.2933C106.631 47.9768 107.485 47.8527 108.334 47.931C109.182 48.0094 110 48.288 110.72 48.7441C111.44 49.2001 112.041 49.8204 112.474 50.5541L112.109 50.7701Z" fill="#E6E6E6"/>
<path d="M112.308 56.2921L111.956 56.0557C112.477 55.2786 112.768 54.3701 112.795 53.4348C112.822 52.4996 112.584 51.5759 112.108 50.7701L112.473 50.5542C112.989 51.4289 113.248 52.4317 113.219 53.447C113.19 54.4622 112.874 55.4486 112.308 56.2921Z" fill="#1574DA"/>
<path d="M103.827 56.8826C102.951 55.904 102.463 54.6389 102.454 53.3254C102.446 52.0119 102.919 50.7408 103.783 49.7515L104.102 50.0304C103.306 50.9418 102.87 52.1129 102.878 53.323C102.885 54.5332 103.335 55.6988 104.142 56.6003L103.827 56.8826Z" fill="#1574DA"/>
<path d="M107.838 58.6755C107.081 58.6749 106.332 58.5149 105.641 58.2059C104.95 57.8969 104.332 57.4459 103.827 56.8822L104.143 56.5999C104.647 57.163 105.273 57.6034 105.973 57.8876C106.673 58.1718 107.429 58.2922 108.183 58.2397C108.937 58.1872 109.668 57.9631 110.323 57.5846C110.977 57.2061 111.535 56.6831 111.957 56.0557L112.308 56.2921C111.816 57.026 111.151 57.6273 110.371 58.043C109.592 58.4586 108.721 58.6759 107.838 58.6755H107.838Z" fill="#1574DA"/>
<path d="M70.5647 52.0293H69.3367C69.1635 52.0293 69.0231 52.1697 69.0231 52.3429V52.7587C69.0231 52.9319 69.1635 53.0723 69.3367 53.0723H70.5647C70.7379 53.0723 70.8783 52.9319 70.8783 52.7587V52.3429C70.8783 52.1697 70.7379 52.0293 70.5647 52.0293Z" fill="#1574DA"/>
<path d="M74.0074 54.0654H69.2675C69.1325 54.0654 69.0231 54.1749 69.0231 54.3099C69.0231 54.4449 69.1325 54.5543 69.2675 54.5543H74.0074C74.1424 54.5543 74.2519 54.4449 74.2519 54.3099C74.2519 54.1749 74.1424 54.0654 74.0074 54.0654Z" fill="#E6E6E6"/>
<path d="M89.0129 52.0293H87.7849C87.6117 52.0293 87.4713 52.1697 87.4713 52.3429V52.7587C87.4713 52.9319 87.6117 53.0723 87.7849 53.0723H89.0129C89.1861 53.0723 89.3265 52.9319 89.3265 52.7587V52.3429C89.3265 52.1697 89.1861 52.0293 89.0129 52.0293Z" fill="#1574DA"/>
<path d="M92.4556 54.0654H87.7157C87.5807 54.0654 87.4713 54.1749 87.4713 54.3099C87.4713 54.4449 87.5807 54.5543 87.7157 54.5543H92.4556C92.5906 54.5543 92.7001 54.4449 92.7001 54.3099C92.7001 54.1749 92.5906 54.0654 92.4556 54.0654Z" fill="#E6E6E6"/>
<path d="M106.765 52.0293H105.537C105.364 52.0293 105.223 52.1697 105.223 52.3429V52.7587C105.223 52.9319 105.364 53.0723 105.537 53.0723H106.765C106.938 53.0723 107.078 52.9319 107.078 52.7587V52.3429C107.078 52.1697 106.938 52.0293 106.765 52.0293Z" fill="#1574DA"/>
<path d="M110.208 54.0654H105.468C105.333 54.0654 105.223 54.1749 105.223 54.3099C105.223 54.4449 105.333 54.5543 105.468 54.5543H110.208C110.343 54.5543 110.452 54.4449 110.452 54.3099C110.452 54.1749 110.343 54.0654 110.208 54.0654Z" fill="#E6E6E6"/>
<path d="M84.6202 23.8662H81.094C80.7852 23.8662 80.535 24.1165 80.535 24.4252C80.535 24.7339 80.7852 24.9842 81.094 24.9842H84.6202C84.929 24.9842 85.1792 24.7339 85.1792 24.4252C85.1792 24.1165 84.929 23.8662 84.6202 23.8662Z" fill="#2E4053"/>
<path d="M100.703 23.8662H100.187C99.8783 23.8662 99.628 24.1165 99.628 24.4252C99.628 24.7339 99.8783 24.9842 100.187 24.9842H100.703C101.012 24.9842 101.262 24.7339 101.262 24.4252C101.262 24.1165 101.012 23.8662 100.703 23.8662Z" fill="#2E4053"/>
<path d="M103.971 23.8662H103.455C103.147 23.8662 102.896 24.1165 102.896 24.4252C102.896 24.7339 103.147 24.9842 103.455 24.9842H103.971C104.28 24.9842 104.53 24.7339 104.53 24.4252C104.53 24.1165 104.28 23.8662 103.971 23.8662Z" fill="#2E4053"/>
<path d="M97.3488 23.8662H87.3723C87.0636 23.8662 86.8133 24.1165 86.8133 24.4252C86.8133 24.7339 87.0636 24.9842 87.3723 24.9842H97.3488C97.6576 24.9842 97.9078 24.7339 97.9078 24.4252C97.9078 24.1165 97.6576 23.8662 97.3488 23.8662Z" fill="#2E4053"/>
<path d="M78.7721 31.0903H75.2458C74.9371 31.0903 74.6868 31.3406 74.6868 31.6493C74.6868 31.958 74.9371 32.2083 75.2458 32.2083H78.7721C79.0808 32.2083 79.3311 31.958 79.3311 31.6493C79.3311 31.3406 79.0808 31.0903 78.7721 31.0903Z" fill="#2E4053"/>
<path d="M94.8548 31.0903H94.3388C94.0301 31.0903 93.7798 31.3406 93.7798 31.6493C93.7798 31.958 94.0301 32.2083 94.3388 32.2083H94.8548C95.1635 32.2083 95.4138 31.958 95.4138 31.6493C95.4138 31.3406 95.1635 31.0903 94.8548 31.0903Z" fill="#2E4053"/>
<path d="M98.1229 31.0903H97.6069C97.2982 31.0903 97.0479 31.3406 97.0479 31.6493C97.0479 31.958 97.2982 32.2083 97.6069 32.2083H98.1229C98.4317 32.2083 98.6819 31.958 98.6819 31.6493C98.6819 31.3406 98.4317 31.0903 98.1229 31.0903Z" fill="#2E4053"/>
<path d="M91.5007 31.0903H81.5241C81.2154 31.0903 80.9651 31.3406 80.9651 31.6493C80.9651 31.958 81.2154 32.2083 81.5241 32.2083H91.5007C91.8094 32.2083 92.0597 31.958 92.0597 31.6493C92.0597 31.3406 91.8094 31.0903 91.5007 31.0903Z" fill="#2E4053"/>
<path d="M97.9511 26.3604H94.4248C94.1161 26.3604 93.8658 26.6106 93.8658 26.9193C93.8658 27.2281 94.1161 27.4783 94.4248 27.4783H97.9511C98.2598 27.4783 98.5101 27.2281 98.5101 26.9193C98.5101 26.6106 98.2598 26.3604 97.9511 26.3604Z" fill="#2E4053"/>
<path d="M78.7721 26.3604H75.2458C74.9371 26.3604 74.6868 26.6106 74.6868 26.9193C74.6868 27.2281 74.9371 27.4783 75.2458 27.4783H78.7721C79.0808 27.4783 79.3311 27.2281 79.3311 26.9193C79.3311 26.6106 79.0808 26.3604 78.7721 26.3604Z" fill="#2E4053"/>
<path d="M75.7622 23.8662H75.2462C74.9375 23.8662 74.6872 24.1165 74.6872 24.4252C74.6872 24.7339 74.9375 24.9842 75.2462 24.9842H75.7622C76.0709 24.9842 76.3212 24.7339 76.3212 24.4252C76.3212 24.1165 76.0709 23.8662 75.7622 23.8662Z" fill="#2E4053"/>
<path d="M75.7617 28.7681H75.2457C74.937 28.7681 74.6867 29.0183 74.6867 29.3271C74.6867 29.6358 74.937 29.8861 75.2457 29.8861H75.7617C76.0705 29.8861 76.3207 29.6358 76.3207 29.3271C76.3207 29.0183 76.0705 28.7681 75.7617 28.7681Z" fill="#2E4053"/>
<path d="M91.7586 26.3604H81.7821C81.4734 26.3604 81.2231 26.6106 81.2231 26.9193C81.2231 27.2281 81.4734 27.4783 81.7821 27.4783H91.7586C92.0674 27.4783 92.3176 27.2281 92.3176 26.9193C92.3176 26.6106 92.0674 26.3604 91.7586 26.3604Z" fill="#2E4053"/>
<path d="M88.3185 28.7681H84.7923C84.4835 28.7681 84.2333 29.0183 84.2333 29.3271C84.2333 29.6358 84.4835 29.8861 84.7923 29.8861H88.3185C88.6273 29.8861 88.8775 29.6358 88.8775 29.3271C88.8775 29.0183 88.6273 28.7681 88.3185 28.7681Z" fill="#2E4053"/>
<path d="M82.0402 28.7681H78.5139C78.2052 28.7681 77.9549 29.0183 77.9549 29.3271C77.9549 29.6358 78.2052 29.8861 78.5139 29.8861H82.0402C82.3489 29.8861 82.5992 29.6358 82.5992 29.3271C82.5992 29.0183 82.3489 28.7681 82.0402 28.7681Z" fill="#2E4053"/>
<path d="M78.6899 23.8662H78.1739C77.8652 23.8662 77.6149 24.1165 77.6149 24.4252C77.6149 24.7339 77.8652 24.9842 78.1739 24.9842H78.6899C78.9987 24.9842 79.2489 24.7339 79.2489 24.4252C79.2489 24.1165 78.9987 23.8662 78.6899 23.8662Z" fill="#2E4053"/>
<path d="M104.229 28.7681H103.713C103.404 28.7681 103.154 29.0183 103.154 29.3271C103.154 29.6358 103.404 29.8861 103.713 29.8861H104.229C104.538 29.8861 104.788 29.6358 104.788 29.3271C104.788 29.0183 104.538 28.7681 104.229 28.7681Z" fill="#2E4053"/>
<path d="M100.961 28.7681H90.9845C90.6757 28.7681 90.4255 29.0183 90.4255 29.3271C90.4255 29.6358 90.6757 29.8861 90.9845 29.8861H100.961C101.27 29.8861 101.52 29.6358 101.52 29.3271C101.52 29.0183 101.27 28.7681 100.961 28.7681Z" fill="#2E4053"/>
<path d="M70.478 23.8662L66.254 28.0371L70.478 32.208L71.4284 31.2576L68.2344 28.0631L71.4552 24.8423L70.478 23.8662Z" fill="#E6E6E6"/>
<path d="M108.998 23.8662L113.221 28.0371L108.998 32.2088L108.047 31.2584L111.241 28.0641L108.021 24.8432L108.998 23.8662Z" fill="#E6E6E6"/>
<path d="M66.4465 43.2963H113.029V40.6743C113.014 40.1158 112.315 39.5826 111.09 39.1955L111.077 39.1914C108.971 38.569 106.784 38.2621 104.588 38.2806C103.068 38.3119 101.767 38.5522 100.721 38.9954C97.4641 40.3753 93.1861 39.9099 90.926 39.5093C88.9304 39.1558 86.9059 38.9909 84.8794 39.0168C82.0498 39.0531 78.0671 39.3954 75.1626 40.82C74.0532 41.3636 71.6407 42.1015 66.4464 42.5352L66.4465 43.2963Z" fill="#2E4053"/>
<path d="M133.44 38.2796L151.213 25.8896H163.193V26.0716H151.295L133.585 38.4182L133.44 38.2796Z" fill="#CCCCCC"/>
<path d="M166.888 29.815C168.928 29.815 170.582 28.1609 170.582 26.1204C170.582 24.0799 168.928 22.4258 166.888 22.4258C164.847 22.4258 163.193 24.0799 163.193 26.1204C163.193 28.1609 164.847 29.815 166.888 29.815Z" fill="#F2F2F2"/>
<path d="M198.027 38.4183H164.294C164.002 38.4183 163.722 38.3023 163.515 38.0959C163.309 37.8895 163.193 37.6095 163.193 37.3175C163.193 37.0256 163.309 36.7456 163.515 36.5392C163.722 36.3328 164.002 36.2168 164.294 36.2168H198.027C198.319 36.2168 198.599 36.3328 198.806 36.5392C199.012 36.7456 199.128 37.0256 199.128 37.3175C199.128 37.6095 199.012 37.8895 198.806 38.0959C198.599 38.3023 198.319 38.4183 198.027 38.4183Z" fill="#F2F2F2"/>
<path d="M198.027 42.7664H164.294C164.149 42.7664 164.006 42.738 163.872 42.6827C163.739 42.6273 163.618 42.5463 163.515 42.444C163.413 42.3418 163.332 42.2205 163.277 42.0869C163.221 41.9534 163.193 41.8102 163.193 41.6657C163.193 41.5211 163.221 41.378 163.277 41.2444C163.332 41.1109 163.413 40.9896 163.515 40.8873C163.618 40.7851 163.739 40.704 163.872 40.6487C164.006 40.5934 164.149 40.5649 164.294 40.5649H198.027C198.319 40.5649 198.599 40.6809 198.806 40.8873C199.012 41.0938 199.128 41.3738 199.128 41.6657C199.128 41.9576 199.012 42.2376 198.806 42.444C198.599 42.6505 198.319 42.7664 198.027 42.7664Z" fill="#F2F2F2"/>
<path d="M178.917 47.1126H164.294C164.002 47.1126 163.722 46.9967 163.515 46.7902C163.309 46.5838 163.193 46.3038 163.193 46.0119C163.193 45.7199 163.309 45.44 163.515 45.2335C163.722 45.0271 164.002 44.9111 164.294 44.9111H178.917C179.209 44.9111 179.489 45.0271 179.695 45.2335C179.901 45.44 180.017 45.7199 180.017 46.0119C180.017 46.3038 179.901 46.5838 179.695 46.7902C179.489 46.9967 179.209 47.1126 178.917 47.1126Z" fill="#F2F2F2"/>
<path d="M0.522929 48.8071C-0.326171 45.2399 -0.184773 41.7266 1.26948 38.2847C1.27689 38.1792 1.30504 38.0762 1.3523 37.9815C1.39956 37.8869 1.465 37.8025 1.5449 37.7331C1.6248 37.6638 1.71757 37.6109 1.81793 37.5774C1.91829 37.544 2.02426 37.5306 2.12978 37.5382L10.0765 38.102C10.182 38.1095 10.285 38.1377 10.3796 38.1849C10.4742 38.2322 10.5586 38.2977 10.6279 38.3776C10.6972 38.4574 10.7501 38.5502 10.7835 38.6506C10.8169 38.7509 10.8303 38.8568 10.8227 38.9623L10.0758 49.4851C10.0684 49.5906 10.0403 49.6936 9.99303 49.7883C9.94577 49.8829 9.88033 49.9673 9.80043 50.0366C9.72053 50.106 9.62773 50.1589 9.52738 50.1923C9.42702 50.2258 9.32105 50.2392 9.21553 50.2316L1.27055 49.6674C1.16493 49.6601 1.06177 49.6321 0.967008 49.5849C0.872243 49.5377 0.787709 49.4723 0.718266 49.3924C0.648822 49.3124 0.59584 49.2196 0.562321 49.1192C0.528802 49.0188 0.515405 48.9127 0.522929 48.8071Z" fill="#F2F2F2"/>
<path d="M1.35767 45.6722C0.677974 43.9145 1.11266 41.497 1.83751 38.9074C1.8516 38.7078 1.94428 38.5221 2.09521 38.3908C2.24614 38.2596 2.44297 38.1936 2.64251 38.2074L9.47206 38.6918C9.67157 38.7058 9.85736 38.7985 9.9886 38.9495C10.1198 39.1004 10.1858 39.2972 10.1721 39.4968L9.50707 48.8603C9.4929 49.0598 9.40018 49.2455 9.24927 49.3767C9.09836 49.5079 8.90159 49.574 8.70208 49.5603L4.47127 49.26C3.58256 49.1964 2.75539 48.7828 2.17136 48.1099C1.58734 47.437 1.29419 46.5599 1.35626 45.6711L1.35767 45.6722Z" fill="white"/>
<path d="M6.08613 46.1325L5.46034 46.0251C5.55637 45.7983 5.61182 45.5564 5.62415 45.3104C5.72285 43.9933 5.73299 42.664 5.78549 41.3442C5.78412 41.2959 5.76881 41.2491 5.74145 41.2094C5.71408 41.1697 5.67583 41.1387 5.63126 41.1202C5.58669 41.1017 5.53771 41.0965 5.49025 41.1052C5.44278 41.1139 5.39886 41.1361 5.36374 41.1692L3.79188 42.4712C3.54688 42.6742 3.89688 43.0224 4.14188 42.8212L5.26994 41.8867L5.16494 44.4805C5.19712 44.9216 5.15115 45.3648 5.02914 45.7899C5.00587 45.8425 4.97549 45.8918 4.93884 45.9362L4.24619 45.8172C4.08029 45.7888 3.86923 45.9271 3.94203 46.1213C3.98156 46.2166 4.0401 46.3027 4.11407 46.3746C4.18803 46.4464 4.27588 46.5024 4.37223 46.5391C4.46858 46.5759 4.57142 46.5925 4.67444 46.5882C4.77746 46.5838 4.87849 46.5584 4.97138 46.5137C5.00763 46.4979 5.04274 46.4795 5.07639 46.4587L5.95699 46.6099C6.26604 46.661 6.39973 46.1847 6.08613 46.1325Z" fill="#2E4053"/>
<path d="M7.89006 74.3566C7.08996 70.9966 7.22507 67.6881 8.59322 64.4464C8.60766 64.2458 8.70108 64.0591 8.85299 63.9274C9.00489 63.7956 9.20287 63.7295 9.40347 63.7436L16.8882 64.2749C17.0887 64.2894 17.2753 64.3828 17.4071 64.5347C17.5388 64.6866 17.605 64.8845 17.591 65.0851L16.8879 74.9954C16.8733 75.1959 16.7799 75.3825 16.628 75.5142C16.4761 75.646 16.2782 75.7121 16.0776 75.6982L8.59286 75.1669C8.39232 75.1523 8.20573 75.0589 8.07399 74.907C7.94224 74.7551 7.8761 74.5572 7.89006 74.3566Z" fill="#F2F2F2"/>
<path d="M8.67584 71.4046C8.03569 69.7491 8.44518 67.4723 9.12803 65.0346C9.14157 64.8467 9.22906 64.6719 9.37131 64.5485C9.51356 64.4251 9.69895 64.3631 9.88682 64.3762L16.3191 64.8312C16.507 64.8447 16.6819 64.9321 16.8053 65.0744C16.9287 65.2167 16.9907 65.4021 16.9775 65.59L16.3517 74.41C16.3382 74.5979 16.2506 74.7727 16.1084 74.8961C15.9661 75.0195 15.7808 75.0815 15.5929 75.0684L11.6085 74.7856C10.7717 74.7254 9.99297 74.3357 9.44317 73.7021C8.89337 73.0684 8.61741 72.2425 8.67584 71.4056V71.4046Z" fill="white"/>
<path d="M12.8758 69.7242C12.9613 69.6843 13.0423 69.6353 13.1173 69.5779C13.3167 69.4135 13.4641 69.1947 13.5416 68.9481C13.6192 68.7015 13.6235 68.4378 13.5541 68.1888C13.2524 67.08 11.9263 67.0734 11.0103 67.2067C10.7149 67.2498 10.8406 67.6988 11.1342 67.6557C11.7513 67.5658 12.7201 67.493 13.0508 68.1671C13.1267 68.3253 13.154 68.5024 13.129 68.6761C13.1041 68.8498 13.0282 69.0121 12.9108 69.1426C12.77 69.2839 12.5844 69.372 12.3858 69.3917C12.1938 69.3082 11.9853 69.2693 11.7761 69.278C11.5605 69.2881 11.4394 69.6021 11.6585 69.7116C11.8516 69.8079 12.0643 69.8582 12.2801 69.8586C12.4592 69.9451 12.6088 70.0824 12.7102 70.2535C12.8116 70.4246 12.8602 70.6218 12.8499 70.8204C12.8084 71.094 12.6599 71.3399 12.4371 71.5039C12.2144 71.668 11.9356 71.7369 11.662 71.6954H11.6564C11.3638 71.6366 11.2385 72.0853 11.5325 72.1445C11.9269 72.2187 12.3346 72.1333 12.666 71.907C12.9973 71.6807 13.2253 71.332 13.2996 70.9377C13.3036 70.9162 13.3071 70.8949 13.3102 70.8736C13.329 70.6618 13.2997 70.4484 13.2247 70.2494C13.1496 70.0504 13.0306 69.8709 12.8765 69.7242H12.8758Z" fill="#2E4053"/>
<path d="M10.06 17.177C9.09717 13.1328 9.25713 9.15011 10.9063 5.24761C10.9237 5.00616 11.0362 4.78148 11.2191 4.62287C11.402 4.46427 11.6403 4.38471 11.8818 4.40166L20.8908 5.04076C21.1322 5.05815 21.3569 5.17063 21.5155 5.35351C21.6741 5.53639 21.7537 5.77473 21.7367 6.01621L20.8897 17.9449C20.8723 18.1864 20.7598 18.411 20.577 18.5696C20.3941 18.7282 20.1558 18.8078 19.9143 18.7909L10.906 18.1521C10.6646 18.1347 10.44 18.0223 10.2814 17.8395C10.1228 17.6567 10.0432 17.4184 10.06 17.177Z" fill="#F2F2F2"/>
<path d="M11.0065 13.6227C10.2365 11.6298 10.7286 8.88934 11.5504 5.95319C11.5666 5.72704 11.6719 5.51658 11.8432 5.36801C12.0145 5.21944 12.2377 5.14491 12.4639 5.1608L20.2076 5.70995C20.4338 5.72626 20.6442 5.8316 20.7927 6.00285C20.9413 6.17411 21.0158 6.39729 21 6.62345L20.2465 17.2389C20.2302 17.4651 20.1248 17.6755 19.9536 17.824C19.7823 17.9726 19.5591 18.0471 19.333 18.0313L14.538 17.6911C13.5307 17.6187 12.5933 17.1496 11.9315 16.3868C11.2697 15.624 10.9375 14.6298 11.0079 13.6224L11.0065 13.6227Z" fill="white"/>
<path d="M15.77 8.27996C15.5682 8.21329 15.3535 8.19528 15.1434 8.22739C14.9334 8.25951 14.7339 8.34083 14.5612 8.46474C14.3886 8.58864 14.2477 8.75162 14.15 8.94036C14.0524 9.1291 14.0007 9.33825 13.9993 9.55076C13.9979 9.76326 14.0467 9.97308 14.1418 10.1631C14.237 10.3531 14.3757 10.518 14.5467 10.6442C14.7176 10.7704 14.916 10.8544 15.1256 10.8893C15.3353 10.9242 15.5502 10.9091 15.7528 10.8451C15.8245 10.8253 15.8854 10.7779 15.9221 10.7133C15.9587 10.6486 15.9683 10.572 15.9485 10.5004C15.9287 10.4287 15.8813 10.3678 15.8166 10.3311C15.752 10.2944 15.6754 10.2849 15.6037 10.3047C14.9737 10.4885 14.3028 9.80841 14.6643 9.20081C14.7466 9.05409 14.8715 8.93587 15.0226 8.86185C15.1736 8.78783 15.3436 8.76152 15.5099 8.78641C15.6511 8.82553 15.7812 8.89721 15.8897 8.99567C15.9982 9.09414 16.0821 9.21666 16.1347 9.35341C16.4437 10.0496 16.0766 10.7562 15.5908 11.2623C15.3132 11.5507 14.9877 11.7751 14.6885 12.0393C14.543 12.1492 14.4222 12.2884 14.3338 12.4478C14.2454 12.6073 14.1915 12.7835 14.1754 12.9651C14.1832 13.1692 14.2467 13.3673 14.3591 13.538C14.4714 13.7086 14.6283 13.8453 14.8127 13.9332C15.3002 14.1251 15.8364 14.1552 16.3422 14.0189C16.6971 13.9615 16.5466 13.4218 16.1935 13.4785C15.7486 13.5485 15.0833 13.6584 14.8015 13.1936C14.56 12.7967 15.0574 12.4481 15.3265 12.2371C16.0073 11.7065 16.6954 11.0198 16.7965 10.1185C16.8508 9.74188 16.7797 9.35787 16.5942 9.02564C16.4087 8.69341 16.1191 8.4314 15.77 8.27996Z" fill="#2E4053"/>
<path d="M18.5608 43.8753C21.7035 42.8988 25.0677 43.9548 28.2275 43.0535C28.9539 42.8547 29.6407 42.532 30.2575 42.0998C30.7838 41.7007 31.278 41.2609 31.7355 40.7845C32.6861 39.8444 33.7183 38.857 35.1463 38.8679C37.0268 38.8822 38.4713 40.2791 39.7243 41.5125C39.9014 41.6875 40.1744 41.4141 39.9973 41.2395C38.8454 40.1062 37.6012 38.9106 35.9614 38.5718C35.226 38.4086 34.4584 38.4724 33.7599 38.7545C33.1539 39.0302 32.6003 39.4092 32.124 39.8745C31.6193 40.3375 31.1535 40.8415 30.6418 41.2972C30.1076 41.7832 29.4923 42.1716 28.8239 42.4449C27.3752 43.0217 25.7866 43.0924 24.2459 43.0749C22.3118 43.0539 20.3318 42.9219 18.4579 43.5043C18.2213 43.5778 18.3225 43.9502 18.5629 43.8764L18.5608 43.8753Z" fill="#3F3D56"/>
<path d="M40.4152 38.9113L41.3812 40.6141L41.8474 41.4383C41.9304 41.5846 42.0158 41.7302 42.097 41.8786C42.1467 41.9693 42.2552 42.1331 42.1516 42.2188C42.0605 42.2633 41.9582 42.2793 41.8579 42.2647C41.6878 42.2647 41.5174 42.2612 41.3469 42.2594L40.3886 42.25L38.4087 42.23C38.3596 42.233 38.3135 42.2546 38.2799 42.2903C38.2462 42.3261 38.2274 42.3734 38.2274 42.4225C38.2274 42.4717 38.2462 42.5189 38.2799 42.5547C38.3135 42.5905 38.3596 42.6121 38.4087 42.615C39.5581 42.6266 40.7082 42.65 41.8576 42.65C42.0583 42.669 42.259 42.6137 42.4218 42.4946C42.5019 42.4156 42.5552 42.3133 42.574 42.2023C42.5929 42.0913 42.5763 41.9772 42.5268 41.8762C42.4135 41.6288 42.2833 41.3897 42.1369 41.1604L41.7169 40.4188L40.7509 38.716C40.7237 38.6747 40.6817 38.6453 40.6335 38.634C40.5853 38.6227 40.5347 38.6303 40.4919 38.6553C40.4492 38.6802 40.4177 38.7206 40.4039 38.7681C40.39 38.8156 40.395 38.8666 40.4177 38.9106L40.4152 38.9113Z" fill="#3F3D56"/>
<path d="M27.7403 14.0013C29.2537 16.053 31.8381 16.9378 33.397 18.9506C33.7591 19.4085 34.0395 19.9255 34.2258 20.4787C34.3713 20.9694 34.478 21.4708 34.545 21.9781C34.7067 23.0012 34.8982 24.0911 35.7945 24.7396C36.9751 25.5943 38.5172 25.3843 39.8657 25.1897C39.8853 25.1863 39.9054 25.1868 39.9248 25.1913C39.9442 25.1957 39.9625 25.204 39.9787 25.2156C39.9948 25.2272 40.0085 25.2419 40.0189 25.2589C40.0293 25.2758 40.0362 25.2947 40.0392 25.3144C40.0422 25.334 40.0412 25.3541 40.0364 25.3734C40.0315 25.3927 40.0229 25.4108 40.0109 25.4267C39.999 25.4427 39.984 25.456 39.9668 25.466C39.9496 25.4761 39.9306 25.4826 39.9108 25.4851C38.6718 25.664 37.3467 25.8393 36.1676 25.2982C35.6337 25.0625 35.1839 24.6704 34.8775 24.1737C34.6255 23.7233 34.4536 23.2325 34.3697 22.7233C34.2647 22.2025 34.2076 21.6733 34.0974 21.1549C33.9869 20.6064 33.781 20.0814 33.4891 19.6041C32.8029 18.6137 31.9303 17.7665 30.9201 17.11C29.7028 16.235 28.4078 15.409 27.5044 14.1857C27.3903 14.0303 27.6244 13.8452 27.7392 14.0006L27.7403 14.0013Z" fill="#3F3D56"/>
<path d="M38.8332 27.5551L40.6203 26.7553L41.4851 26.3685C41.6388 26.2985 41.7935 26.2331 41.9465 26.1614C42.0403 26.1176 42.2247 26.0504 42.1914 25.9195C42.169 25.8303 42.0514 25.7588 41.9814 25.7095C41.8446 25.6083 41.7049 25.5107 41.567 25.4109L40.7901 24.8509L39.1832 23.696C39.142 23.6656 39.1145 23.6202 39.1068 23.5696C39.0991 23.5191 39.1118 23.4675 39.1421 23.4263C39.1724 23.3851 39.2178 23.3576 39.2684 23.3499C39.319 23.3421 39.3705 23.3548 39.4118 23.3852C40.3442 24.0568 41.2857 24.7183 42.2118 25.4001C42.3846 25.5035 42.5135 25.6666 42.5743 25.8586C42.5917 25.97 42.5736 26.0841 42.5224 26.1847C42.4713 26.2852 42.3898 26.367 42.2894 26.4186C42.0517 26.5507 41.805 26.6661 41.5513 26.764L40.7743 27.114L38.9872 27.9138C38.9408 27.9309 38.8897 27.9295 38.8443 27.91C38.7989 27.8905 38.7627 27.8544 38.7431 27.8091C38.7236 27.7637 38.7221 27.7126 38.739 27.6662C38.756 27.6198 38.79 27.5817 38.8342 27.5596L38.8332 27.5551Z" fill="#3F3D56"/>
<path d="M26.2143 69.8144C27.9156 67.5079 30.821 66.5136 32.5731 64.2494C32.9803 63.735 33.2957 63.1543 33.5055 62.5327C33.669 61.9811 33.789 61.4175 33.8642 60.8471C34.0455 59.697 34.2611 58.472 35.2691 57.7429C36.5963 56.7829 38.3299 57.0177 39.8457 57.2372C39.8898 57.244 39.9348 57.2331 39.9708 57.2068C40.0068 57.1806 40.0308 57.141 40.0377 57.097C40.0446 57.0529 40.0337 57.008 40.0074 56.972C39.9811 56.936 39.9416 56.9119 39.8975 56.905C38.5049 56.7038 37.0146 56.5071 35.6898 57.115C35.0896 57.38 34.5839 57.8208 34.2394 58.3792C33.9566 58.8851 33.7638 59.4362 33.6696 60.0081C33.5541 60.5933 33.4883 61.1873 33.3634 61.7711C33.2392 62.3877 33.0077 62.9778 32.6795 63.5144C31.9606 64.6663 30.8815 65.5346 29.7916 66.3179C28.4238 67.3021 26.9664 68.23 25.9518 69.6051C25.824 69.7801 26.0869 69.988 26.2157 69.8123L26.2143 69.8144Z" fill="#3F3D56"/>
<path d="M38.8331 54.813L40.6202 55.6128L41.4851 55.9995C41.6387 56.0695 41.7934 56.135 41.9464 56.2067C42.0402 56.2505 42.2246 56.3177 42.1914 56.4486C42.169 56.5378 42.0514 56.6092 41.9814 56.6586C41.8445 56.7597 41.7049 56.8574 41.567 56.9571L40.79 57.5171L39.1831 58.6721C39.1627 58.6871 39.1455 58.706 39.1324 58.7277C39.1192 58.7493 39.1105 58.7734 39.1067 58.7984C39.1029 58.8235 39.104 58.849 39.1101 58.8736C39.1162 58.8982 39.127 58.9214 39.142 58.9418C39.157 58.9622 39.1759 58.9795 39.1976 58.9926C39.2193 59.0057 39.2433 59.0144 39.2683 59.0182C39.2934 59.022 39.3189 59.0209 39.3435 59.0148C39.3681 59.0088 39.3913 58.9979 39.4117 58.9829C40.3441 58.3113 41.2856 57.6497 42.2117 56.9679C42.3845 56.8645 42.5135 56.7014 42.5743 56.5095C42.5917 56.398 42.5735 56.2839 42.5224 56.1834C42.4712 56.0829 42.3897 56.001 42.2894 55.9495C42.0516 55.8174 41.805 55.7019 41.5512 55.604L40.7742 55.254L38.9871 54.4543C38.9408 54.4372 38.8896 54.4386 38.8442 54.458C38.7989 54.4775 38.7627 54.5136 38.7431 54.559C38.7235 54.6043 38.722 54.6555 38.739 54.7019C38.7559 54.7483 38.79 54.7864 38.8342 54.8085L38.8331 54.813Z" fill="#3F3D56"/>
<path d="M21.8111 9.02566C23.9466 9.44074 26.0142 8.04613 26.4292 5.9107C26.8443 3.77528 25.4497 1.70768 23.3143 1.29259C21.1789 0.877508 19.1113 2.27212 18.6962 4.40755C18.2811 6.54297 19.6757 8.61057 21.8111 9.02566Z" fill="#F2F2F2"/>
<path d="M21.893 6.55927C21.8062 6.54244 21.7273 6.49795 21.668 6.43247L21.6653 6.42837L20.8902 5.55498C20.8235 5.4726 20.7913 5.36768 20.8001 5.26209C20.8089 5.1565 20.8581 5.05839 20.9375 4.98821C21.0169 4.91804 21.1203 4.88121 21.2262 4.88541C21.3321 4.88961 21.4322 4.93451 21.5058 5.01075L22.007 5.57667L23.7504 4.03262C23.832 3.96032 23.939 3.92341 24.0479 3.92999C24.1567 3.93657 24.2585 3.98611 24.3308 4.06771L24.3199 4.07806L24.3312 4.06778C24.4033 4.14955 24.4401 4.25661 24.4334 4.36546C24.4268 4.47432 24.3772 4.57609 24.2957 4.64847L22.2452 6.46408C22.1978 6.50585 22.1414 6.53614 22.0804 6.5526C22.0194 6.56905 21.9554 6.57124 21.8934 6.559L21.893 6.55927Z" fill="white"/>
<path d="M19.3459 68.851C21.6353 69.296 23.8519 67.8008 24.2968 65.5115C24.7418 63.2222 23.2467 61.0056 20.9574 60.5606C18.6681 60.1156 16.4515 61.6107 16.0065 63.9C15.5615 66.1894 17.0566 68.406 19.3459 68.851Z" fill="#F2F2F2"/>
<path d="M19.4337 66.2067C19.3404 66.1888 19.2555 66.141 19.1917 66.0705L19.1879 66.0662L18.3587 65.132C18.3203 65.0887 18.2908 65.0382 18.2719 64.9834C18.2531 64.9287 18.2451 64.8708 18.2487 64.813C18.2522 64.7552 18.267 64.6986 18.2924 64.6465C18.3177 64.5945 18.3531 64.5479 18.3965 64.5095C18.4398 64.4711 18.4903 64.4416 18.545 64.4228C18.5998 64.4039 18.6577 64.396 18.7155 64.3995C18.7733 64.403 18.8299 64.4178 18.8819 64.4432C18.934 64.4686 18.9806 64.5039 19.019 64.5473L19.5557 65.1536L21.4243 63.498C21.4676 63.4595 21.5182 63.4298 21.573 63.4108C21.6279 63.3919 21.6859 63.3839 21.7438 63.3875C21.8018 63.391 21.8584 63.406 21.9106 63.4315C21.9627 63.457 22.0093 63.4926 22.0476 63.5361L22.0357 63.5477L22.0477 63.5354C22.0861 63.5788 22.1156 63.6293 22.1344 63.6841C22.1532 63.7388 22.1611 63.7967 22.1575 63.8545C22.1539 63.9123 22.139 63.9688 22.1135 64.0209C22.0881 64.0729 22.0526 64.1193 22.0091 64.1576L19.8122 66.1052C19.7615 66.1499 19.7012 66.1824 19.6359 66.2001C19.5706 66.2178 19.5022 66.2202 19.4358 66.2071L19.4337 66.2067Z" fill="white"/>
<path d="M10.666 42.8242C13.0966 43.2967 15.4501 41.7093 15.9226 39.2786C16.3951 36.8479 14.8076 34.4945 12.377 34.022C9.94628 33.5495 7.59281 35.137 7.12034 37.5676C6.64786 39.9983 8.2353 42.3518 10.666 42.8242Z" fill="#F2F2F2"/>
<path d="M10.7588 40.0177C10.6597 39.9985 10.5695 39.9477 10.5017 39.8728L10.4977 39.8681L9.61725 38.8762C9.53489 38.7832 9.49285 38.6613 9.50037 38.5374C9.50788 38.4134 9.56434 38.2975 9.65733 38.2151C9.75031 38.1328 9.8722 38.0907 9.99618 38.0982C10.1202 38.1058 10.2361 38.1622 10.3184 38.2552L10.8878 38.8993L12.8731 37.1416C12.966 37.0595 13.0876 37.0177 13.2112 37.0251C13.3349 37.0326 13.4506 37.0888 13.5329 37.1814L13.5202 37.1932L13.5332 37.1815C13.6153 37.2745 13.6572 37.3963 13.6496 37.5202C13.6421 37.644 13.5857 37.7598 13.4929 37.8422L11.16 39.9092C11.1061 39.9568 11.0419 39.9913 10.9724 40.0101C10.903 40.0288 10.8302 40.0314 10.7596 40.0174L10.7588 40.0177Z" fill="white"/>
</svg>
