<svg width="142" height="60" viewBox="0 0 142 60" fill="none" xmlns="http://www.w3.org/2000/svg">
<path d="M141.49 14.4567H141.178V5.90286C141.178 5.25272 141.05 4.60895 140.801 4.0083C140.552 3.40765 140.187 2.86189 139.728 2.40217C139.268 1.94246 138.722 1.57779 138.122 1.32899C137.521 1.0802 136.877 0.952146 136.227 0.952148H118.105C117.455 0.952146 116.811 1.0802 116.21 1.32899C115.609 1.57779 115.064 1.94246 114.604 2.40217C114.144 2.86189 113.78 3.40765 113.531 4.0083C113.282 4.60895 113.154 5.25272 113.154 5.90286V52.8297C113.154 53.4798 113.282 54.1236 113.531 54.7242C113.78 55.3249 114.144 55.8707 114.604 56.3304C115.064 56.7901 115.609 57.1547 116.21 57.4035C116.811 57.6523 117.455 57.7804 118.105 57.7804H136.227C136.877 57.7804 137.521 57.6523 138.122 57.4035C138.722 57.1547 139.268 56.7901 139.728 56.3304C140.187 55.8707 140.552 55.3249 140.801 54.7242C141.05 54.1236 141.178 53.4798 141.178 52.8297V20.5454H141.49V14.4567Z" fill="#2E4053"/>
<path d="M140.124 6.19356V53.0521C140.124 54.0328 139.735 54.9733 139.041 55.6667C138.348 56.3602 137.407 56.7497 136.427 56.7498H118.217C117.732 56.7497 117.251 56.654 116.802 56.4682C116.354 56.2823 115.946 56.0099 115.603 55.6666C115.26 55.3232 114.988 54.9156 114.802 54.467C114.616 54.0184 114.521 53.5376 114.521 53.0521V6.19356C114.521 5.21332 114.91 4.27324 115.604 3.58011C116.297 2.88698 117.237 2.49757 118.217 2.49756H120.426C120.318 2.76424 120.277 3.05347 120.306 3.33982C120.336 3.62618 120.435 3.90088 120.596 4.13979C120.756 4.3787 120.973 4.5745 121.227 4.70998C121.481 4.84546 121.765 4.91647 122.052 4.91676H132.435C132.723 4.91731 133.007 4.84684 133.261 4.71159C133.516 4.57634 133.733 4.38047 133.894 4.14131C134.055 3.90215 134.154 3.62706 134.183 3.34036C134.212 3.05367 134.17 2.7642 134.061 2.49756H136.427C137.407 2.49751 138.347 2.88684 139.041 3.57994C139.734 4.27304 140.124 5.21315 140.124 6.19356Z" fill="white"/>
<path d="M136.677 26.4883H115.509V32.2003H136.677V26.4883Z" fill="#E6E6E6"/>
<path d="M137.517 31.192H117.021C116.887 31.1919 116.759 31.1388 116.665 31.0443C116.57 30.9498 116.517 30.8217 116.517 30.688V25.648C116.517 25.5144 116.57 25.3863 116.665 25.2918C116.759 25.1973 116.887 25.1442 117.021 25.144H137.517C137.651 25.1442 137.779 25.1973 137.873 25.2918C137.968 25.3863 138.021 25.5144 138.021 25.648V30.688C138.021 30.8217 137.968 30.9498 137.873 31.0443C137.779 31.1388 137.651 31.1919 137.517 31.192ZM117.021 25.48C116.976 25.4801 116.934 25.4978 116.902 25.5293C116.871 25.5608 116.853 25.6035 116.853 25.648V30.688C116.853 30.7326 116.871 30.7753 116.902 30.8068C116.934 30.8383 116.976 30.856 117.021 30.856H137.517C137.562 30.856 137.604 30.8383 137.636 30.8068C137.667 30.7753 137.685 30.7326 137.685 30.688V25.648C137.685 25.6035 137.667 25.5608 137.636 25.5293C137.604 25.4978 137.562 25.4801 137.517 25.48H117.021Z" fill="#2E4053"/>
<path d="M120.549 29.6802H117.861V30.0162H120.549V29.6802Z" fill="#2E4053"/>
<path d="M124.245 29.6802H121.557V30.0162H124.245V29.6802Z" fill="#2E4053"/>
<path d="M127.941 29.6802H125.253V30.0162H127.941V29.6802Z" fill="#2E4053"/>
<path d="M131.637 29.6802H128.949V30.0162H131.637V29.6802Z" fill="#2E4053"/>
<path d="M135.333 29.6802H132.645V30.0162H135.333V29.6802Z" fill="#2E4053"/>
<path d="M133.317 49.168H10.1729V49.504H133.317V49.168Z" fill="#2E4053"/>
<path d="M133.317 51.3522C134.337 51.3522 135.165 50.5249 135.165 49.5042C135.165 48.4836 134.337 47.6562 133.317 47.6562C132.296 47.6562 131.469 48.4836 131.469 49.5042C131.469 50.5249 132.296 51.3522 133.317 51.3522Z" fill="#2E4053"/>
<path d="M49.3159 49.2841H16.6744C16.2633 49.2836 15.8692 49.12 15.5786 48.8291C15.288 48.5383 15.1247 48.1441 15.1245 47.733V3.42243C15.125 3.01153 15.2885 2.6176 15.579 2.32705C15.8696 2.0365 16.2635 1.87305 16.6744 1.87256H49.3159C49.7268 1.87309 50.1207 2.03655 50.4112 2.32709C50.7018 2.61764 50.8652 3.01154 50.8657 3.42243V47.7332C50.8655 48.1443 50.7021 48.5385 50.4116 48.8292C50.121 49.12 49.7269 49.2836 49.3159 49.2841Z" fill="#F2F2F2"/>
<path d="M26.0553 19.3836C25.9839 19.3889 25.9151 19.413 25.856 19.4536C26.1563 19.4348 26.4548 19.3934 26.7488 19.3296L26.0553 19.3836Z" fill="#2F2E41"/>
<path d="M25.4616 7.17733C24.0901 7.17758 22.757 7.63054 21.6693 8.46591C20.5815 9.30128 19.7999 10.4723 19.4458 11.7973C19.0917 13.1223 19.1849 14.5272 19.7109 15.7938C20.2369 17.0604 21.1662 18.118 22.3548 18.8025C22.6703 18.9852 23.0015 19.1394 23.3445 19.2633L23.4021 19.2833C24.0637 19.5156 24.76 19.6339 25.4613 19.633C25.5971 19.633 25.7324 19.6286 25.8661 19.6186C26.1748 19.5995 26.4816 19.557 26.7839 19.4915C26.9531 19.4546 27.119 19.4107 27.2761 19.3628C27.3143 19.3517 27.3501 19.3404 27.3893 19.3281C28.7992 18.8691 29.9992 17.9223 30.7735 16.6577C31.5477 15.3931 31.8454 13.8939 31.6131 12.4294C31.3808 10.965 30.6337 9.63145 29.506 8.66861C28.3784 7.70577 26.9443 7.17678 25.4616 7.17676V7.17733ZM29.0745 18.0706C28.5372 18.4853 27.9324 18.8041 27.2868 19.0133L27.1802 19.047C27.0312 19.093 26.8744 19.1334 26.7129 19.1681C26.4269 19.2305 26.1365 19.271 25.8443 19.2892C25.7172 19.2981 25.59 19.3026 25.4609 19.3026C24.7971 19.3028 24.1381 19.1908 23.5117 18.9714L23.4567 18.9522C23.1156 18.8297 22.7868 18.6751 22.4749 18.4905C21.3883 17.8509 20.5355 16.8795 20.0419 15.7193C19.5482 14.559 19.4398 13.271 19.7324 12.0446C20.0251 10.8181 20.7034 9.71783 21.6677 8.90545C22.632 8.09307 23.8315 7.61141 25.0898 7.53126C26.3482 7.45111 27.5991 7.7767 28.6587 8.46016C29.7182 9.14363 30.5307 10.1489 30.9766 11.3284C31.4225 12.5078 31.4783 13.7992 31.1358 15.0127C30.7934 16.2262 30.0708 17.2979 29.0741 18.0702L29.0745 18.0706Z" fill="#2E4053"/>
<path d="M42.9971 13.3809H33.761C33.567 13.3809 33.381 13.3039 33.2439 13.1668C33.1068 13.0296 33.0297 12.8436 33.0297 12.6497C33.0297 12.4558 33.1068 12.2698 33.2439 12.1326C33.381 11.9955 33.567 11.9185 33.761 11.9185H42.9971C43.1911 11.9185 43.377 11.9955 43.5142 12.1326C43.6513 12.2698 43.7283 12.4558 43.7283 12.6497C43.7283 12.8436 43.6513 13.0296 43.5142 13.1668C43.377 13.3039 43.1911 13.3809 42.9971 13.3809Z" fill="#E6E6E6"/>
<path d="M46.011 15.8467H33.7608C33.5668 15.8467 33.3808 15.7697 33.2437 15.6326C33.1066 15.4954 33.0295 15.3094 33.0295 15.1155C33.0295 14.9216 33.1066 14.7356 33.2437 14.5984C33.3808 14.4613 33.5668 14.3843 33.7608 14.3843H46.0113C46.2052 14.3843 46.3912 14.4613 46.5283 14.5984C46.6655 14.7356 46.7425 14.9216 46.7425 15.1155C46.7425 15.3094 46.6655 15.4954 46.5283 15.6326C46.3912 15.7697 46.2052 15.8467 46.0113 15.8467H46.011Z" fill="#E6E6E6"/>
<path d="M42.9831 25.3062H19.9793C19.7853 25.3062 19.5994 25.2292 19.4622 25.092C19.3251 24.9549 19.248 24.7689 19.248 24.575C19.248 24.381 19.3251 24.1951 19.4622 24.0579C19.5994 23.9208 19.7853 23.8438 19.9793 23.8438H42.9833C43.1772 23.8438 43.3632 23.9208 43.5003 24.0579C43.6375 24.1951 43.7145 24.381 43.7145 24.575C43.7145 24.7689 43.6375 24.9549 43.5003 25.092C43.3632 25.2292 43.1772 25.3062 42.9833 25.3062H42.9831Z" fill="white"/>
<path d="M45.9972 27.7715H19.9793C19.7853 27.7715 19.5994 27.6945 19.4622 27.5574C19.3251 27.4202 19.248 27.2342 19.248 27.0403C19.248 26.8464 19.3251 26.6604 19.4622 26.5233C19.5994 26.3861 19.7853 26.3091 19.9793 26.3091H45.9975C46.1914 26.3091 46.3774 26.3861 46.5145 26.5233C46.6517 26.6604 46.7287 26.8464 46.7287 27.0403C46.7287 27.2342 46.6517 27.4202 46.5145 27.5574C46.3774 27.6945 46.1914 27.7715 45.9975 27.7715H45.9972Z" fill="white"/>
<path d="M62.9326 19.1024C62.9626 18.8248 62.9065 18.5447 62.7718 18.3001C62.6371 18.0555 62.4304 17.8583 62.1797 17.7353L37.0237 5.44025C36.7005 5.28216 36.3279 5.2589 35.9876 5.37559C35.6473 5.49228 35.3674 5.73936 35.2093 6.06248L25.7724 25.3673C25.6149 25.6906 25.5921 26.0631 25.7089 26.4032C25.8257 26.7434 26.0726 27.0233 26.3955 27.1817L51.5514 39.4767C51.8747 39.6341 52.2473 39.6569 52.5874 39.5401C52.9275 39.4233 53.2074 39.1764 53.3658 38.8536L62.8015 19.5497C62.8709 19.4093 62.9152 19.2579 62.9326 19.1023V19.1024Z" fill="white"/>
<path d="M62.9326 19.1024C62.9626 18.8248 62.9065 18.5447 62.7718 18.3001C62.6371 18.0555 62.4304 17.8583 62.1797 17.7353L37.0237 5.44025C36.7005 5.28216 36.3279 5.2589 35.9876 5.37559C35.6473 5.49228 35.3674 5.73936 35.2093 6.06248L25.7724 25.3673C25.6149 25.6906 25.5921 26.0631 25.7089 26.4032C25.8257 26.7434 26.0726 27.0233 26.3955 27.1817L51.5514 39.4767C51.8747 39.6341 52.2473 39.6569 52.5874 39.5401C52.9275 39.4233 53.2074 39.1764 53.3658 38.8536L62.8015 19.5497C62.8709 19.4093 62.9152 19.2579 62.9326 19.1023V19.1024ZM53.2242 38.7839C53.0845 39.0688 52.8374 39.2866 52.5373 39.3897C52.2371 39.4927 51.9084 39.4725 51.6231 39.3335L26.4672 27.0387C26.1822 26.8989 25.9644 26.6519 25.8613 26.3517C25.7582 26.0516 25.7784 25.7228 25.9174 25.4375L35.3523 6.13304C35.492 5.84813 35.7391 5.63028 36.0392 5.52724C36.3394 5.4242 36.6681 5.4444 36.9534 5.58339L62.1093 17.8784C62.3943 18.0181 62.6121 18.2652 62.7152 18.5653C62.8182 18.8655 62.798 19.1943 62.659 19.4795L53.2242 38.7839Z" fill="#2E4053"/>
<path d="M60.1878 19.9809L53.5999 33.4611C53.556 33.5511 53.4781 33.6199 53.3834 33.6525C53.2888 33.685 53.185 33.6787 53.095 33.6348L30.2119 22.4506C30.1955 22.4427 30.1799 22.4335 30.1652 22.423C30.0903 22.372 30.0362 22.2957 30.0129 22.2082C29.9895 22.1206 29.9985 22.0276 30.0381 21.946L36.6262 8.46576C36.6702 8.37582 36.748 8.30701 36.8427 8.27445C36.9373 8.24188 37.0411 8.24823 37.1311 8.2921L60.0138 19.4763C60.1038 19.5203 60.1726 19.5981 60.2051 19.6928C60.2377 19.7875 60.2313 19.8912 60.1875 19.9812L60.1878 19.9809Z" fill="#F2F2F2"/>
<path d="M40.0985 19.2954C41.9286 19.2954 43.4122 17.8118 43.4122 15.9817C43.4122 14.1516 41.9286 12.668 40.0985 12.668C38.2683 12.668 36.7847 14.1516 36.7847 15.9817C36.7847 17.8118 38.2683 19.2954 40.0985 19.2954Z" fill="#E6E6E6"/>
<path d="M44.951 29.7211L30.3452 22.5832C30.3268 22.5742 30.3092 22.5636 30.2928 22.5514L43.0483 13.9616C43.1269 13.9077 43.2183 13.8756 43.3134 13.8686C43.4084 13.8617 43.5036 13.88 43.5892 13.9218C43.6748 13.9637 43.7478 14.0275 43.8006 14.1068C43.8535 14.186 43.8844 14.2779 43.8901 14.373L44.6016 24.669L44.6359 25.1618L44.951 29.7211Z" fill="#2E4053"/>
<path opacity="0.2" d="M44.9513 29.7211L39.9646 27.2839L44.1505 24.9245L44.4519 24.7547L44.6025 24.6694L44.6368 25.1622L44.9513 29.7211Z" fill="black"/>
<path d="M53.0839 33.6955L40.4512 27.5214L44.6371 25.1621L44.9385 24.992L50.3932 21.9173C50.4842 21.8742 50.5832 21.8507 50.6839 21.8483C50.7845 21.846 50.8846 21.8648 50.9775 21.9035C51.0704 21.9423 51.1541 22.0001 51.2233 22.0733C51.2924 22.1465 51.3454 22.2335 51.3788 22.3284C51.3864 22.3546 51.3924 22.3813 51.3966 22.4082L53.0839 33.6955Z" fill="#2E4053"/>
<path d="M3.69922 21.9746H10.4805C11.2758 21.974 12.0428 22.2703 12.6309 22.8057L12.6533 22.8262L12.6768 22.8438L20.0225 28.0889C20.589 28.5901 21.3186 28.8676 22.0762 28.8672V28.8682H59.3516C59.7225 28.8681 60.0904 28.9319 60.4385 29.0576L60.5859 29.1152C60.9771 29.2788 61.3322 29.5194 61.6299 29.8213C61.9274 30.1231 62.1623 30.4808 62.3203 30.874C62.4587 31.2184 62.5358 31.584 62.5488 31.9541L62.5508 32.1123L62.207 55.5918C62.1924 56.3793 61.8893 57.1321 61.3584 57.709L61.249 57.8213C60.6508 58.4109 59.8458 58.7428 59.0059 58.7461H3.69922L3.54102 58.7422C2.80313 58.7049 2.10035 58.4139 1.55273 57.918L1.43848 57.8086C0.87624 57.2464 0.544019 56.4964 0.503906 55.7061L0.5 55.5469V25.1738L0.503906 25.0156C0.541238 24.2776 0.832994 23.575 1.3291 23.0273L1.43848 22.9131C2.00084 22.3507 2.75046 22.0185 3.54102 21.9785L3.69922 21.9746Z" fill="white" stroke="#2E4053"/>
<path d="M25.6785 17.4174H25.6846C26.7022 17.3618 27.6606 16.9213 28.3654 16.1852C29.0702 15.4491 29.4688 14.4725 29.4802 13.4534C29.4915 12.4343 29.115 11.4491 28.4268 10.6974C27.7386 9.9457 26.7903 9.48387 25.7741 9.40553C25.7616 9.40459 25.7491 9.40621 25.7372 9.41031C25.7254 9.4144 25.7145 9.42088 25.7052 9.42933C25.696 9.43779 25.6885 9.44805 25.6834 9.45949C25.6783 9.47092 25.6755 9.48329 25.6753 9.49582L25.5877 17.3258C25.5875 17.3379 25.5898 17.3499 25.5943 17.3611C25.5987 17.3723 25.6054 17.3825 25.6138 17.3911C25.6223 17.3997 25.6323 17.4066 25.6434 17.4113C25.6545 17.4161 25.6664 17.4186 25.6785 17.4187V17.4174Z" fill="#1574DA"/>
<path d="M22.5302 10.6992C22.5614 10.6996 22.5912 10.7122 22.6131 10.7345L25.3085 13.4912C25.3194 13.5022 25.328 13.5153 25.3338 13.5297C25.3395 13.544 25.3424 13.5594 25.3422 13.5749L25.3003 17.3213C25.3002 17.3374 25.2967 17.3533 25.2902 17.368C25.2836 17.3826 25.2741 17.3958 25.2621 17.4066C25.2503 17.4177 25.2363 17.4263 25.221 17.4318C25.2057 17.4372 25.1894 17.4395 25.1732 17.4384C24.4236 17.3826 23.7044 17.1188 23.0965 16.6767C22.4887 16.2346 22.0161 15.6317 21.7321 14.9357C21.448 14.2398 21.3637 13.4785 21.4886 12.7373C21.6135 11.9961 21.9426 11.3044 22.439 10.74C22.4498 10.7278 22.4629 10.7179 22.4776 10.711C22.4923 10.7041 22.5083 10.7004 22.5246 10.6999L22.5302 10.6992Z" fill="#E6E6E6"/>
<path d="M25.2705 9.37207C25.3005 9.37209 25.3294 9.38346 25.3513 9.40389C25.363 9.415 25.3723 9.42842 25.3785 9.44329C25.3848 9.45816 25.3878 9.47417 25.3876 9.49029L25.3497 12.8708C25.3495 12.8941 25.3423 12.9167 25.3292 12.9359C25.3161 12.9551 25.2975 12.97 25.276 12.9787C25.2544 12.9873 25.2308 12.9894 25.208 12.9847C25.1852 12.9799 25.1644 12.9685 25.1481 12.9519L22.7954 10.5471C22.7843 10.5357 22.7756 10.5221 22.7698 10.5072C22.7641 10.4923 22.7614 10.4763 22.762 10.4604C22.7626 10.4444 22.7664 10.4287 22.7733 10.4143C22.7801 10.3998 22.7898 10.3869 22.8018 10.3763C23.4859 9.77423 24.3531 9.42051 25.2632 9.37236L25.2705 9.37207Z" fill="#2E4053"/>
<path d="M31.5263 44.3867C29.3739 44.3867 27.6212 42.5258 27.6212 40.2385C27.6212 37.9512 29.3729 36.0903 31.5263 36.0903C33.6797 36.0903 35.4314 37.9512 35.4314 40.2385C35.4314 42.5258 33.6795 44.3867 31.5263 44.3867ZM31.5263 37.1382C29.9509 37.1382 28.6695 38.5288 28.6695 40.2383C28.6695 41.9477 29.9511 43.3383 31.5263 43.3383C33.1015 43.3383 34.3831 41.9474 34.3831 40.2383C34.3831 38.5291 33.1015 37.1384 31.5263 37.1384V37.1382Z" fill="#2E4053"/>
<path d="M35.2239 51.6161H27.827C27.1748 51.6154 26.5496 51.356 26.0885 50.8948C25.6275 50.4337 25.3681 49.8084 25.3674 49.1563V41.9016C25.3678 41.4549 25.5454 41.0266 25.8613 40.7107C26.1772 40.3948 26.6055 40.2172 27.0522 40.2168H36C36.4467 40.2171 36.8751 40.3947 37.191 40.7106C37.5068 41.0265 37.6845 41.4549 37.6848 41.9016V49.1562C37.6841 49.8085 37.4246 50.434 36.9632 50.8952C36.5019 51.3564 35.8763 51.6157 35.2239 51.6161Z" fill="#2E4053"/>
<path d="M32.9671 44.3442C32.9673 44.088 32.8992 43.8364 32.7698 43.6153C32.6404 43.3941 32.4544 43.2115 32.231 43.0861C32.0075 42.9608 31.7547 42.8973 31.4985 42.9021C31.2423 42.907 30.9921 42.98 30.7736 43.1138C30.555 43.2475 30.3761 43.437 30.2552 43.6629C30.1342 43.8888 30.0757 44.1428 30.0856 44.3989C30.0955 44.6549 30.1735 44.9036 30.3115 45.1195C30.4495 45.3354 30.6426 45.5105 30.8708 45.627V47.882H32.1819V45.627C32.4183 45.5063 32.6167 45.3226 32.7553 45.0963C32.8939 44.8699 32.9672 44.6096 32.9671 44.3442Z" fill="white"/>
</svg>
