<svg width="20" height="20" viewBox="0 0 20 20" fill="none" xmlns="http://www.w3.org/2000/svg">
<path fill-rule="evenodd" clip-rule="evenodd" d="M17.2562 7.76197V13.2701C17.2562 13.8869 16.7522 14.3929 16.1334 14.3929H14.6757V16.9184L12.5783 14.3908H9.20638C8.58964 14.3908 8.08357 13.8868 8.08357 13.268V11.6071H11.0469C12.1356 11.6071 13.0253 10.7196 13.0253 9.62874L13.026 6.63908H16.1334C16.7523 6.63908 17.2562 7.14313 17.2562 7.76197ZM11.0498 10.7538H7.67786L5.58044 13.2785V10.7538H4.12281C3.50607 10.7538 3 10.2498 3 9.63096V4.1228C3 3.50607 3.50397 3 4.12281 3H11.0497C11.6664 3 12.1725 3.50397 12.1725 4.1228V9.63096C12.1704 10.2491 11.6658 10.7538 11.0498 10.7538Z" fill="white"/>
</svg>
