<svg width="20" height="20" viewBox="0 0 20 20" fill="none" xmlns="http://www.w3.org/2000/svg">
<path d="M7.0653 12.4619L8.5503 9.53695L11.4753 8.05195C11.5681 8.00414 11.63 7.9057 11.63 7.80164C11.63 7.69758 11.5709 7.59914 11.4753 7.55133L8.5503 6.06633L7.0653 3.14133C6.96968 2.95289 6.6603 2.95289 6.56469 3.14133L5.07969 6.06633L2.15469 7.55133C2.05906 7.59914 2 7.69758 2 7.80164C2 7.9057 2.05906 8.00414 2.15469 8.05195L5.07969 9.53695L6.56469 12.4619C6.6125 12.5576 6.71094 12.6166 6.815 12.6166C6.91905 12.6166 7.0175 12.5576 7.0653 12.4619Z" fill="white"/>
<path d="M17.0328 10.7687L15.2722 9.87436L14.3778 8.11374C14.2822 7.9253 13.9728 7.9253 13.8772 8.11374L12.9828 9.87436L11.2222 10.7687C11.1294 10.8166 11.0675 10.915 11.0675 11.0191C11.0675 11.1231 11.1266 11.2216 11.2222 11.2694L12.9828 12.1637L13.8772 13.9244C13.925 14.02 14.0206 14.079 14.1275 14.079C14.2344 14.079 14.33 14.02 14.3778 13.9244L15.2722 12.1637L17.0328 11.2694C17.1256 11.2215 17.1875 11.1231 17.1875 11.0191C17.1875 10.915 17.1284 10.8166 17.0328 10.7687Z" fill="white"/>
<path d="M11.4753 14.5714L10.1028 13.8739L9.4053 12.5014C9.35749 12.4057 9.25905 12.3467 9.155 12.3467C9.05094 12.3467 8.9525 12.4057 8.90469 12.5014L8.20719 13.8739L6.83469 14.5714C6.73906 14.6192 6.68 14.7176 6.68 14.8217C6.68 14.9257 6.73906 15.0242 6.83469 15.072L8.20719 15.7695L8.90469 17.142C8.9525 17.2376 9.05094 17.2967 9.155 17.2967C9.25905 17.2967 9.3575 17.2376 9.4053 17.142L10.1028 15.7695L11.4753 15.072C11.5681 15.0242 11.63 14.9257 11.63 14.8217C11.63 14.7176 11.5709 14.6192 11.4753 14.5714Z" fill="white"/>
</svg>
