<svg width="20" height="20" viewBox="0 0 20 20" fill="none" xmlns="http://www.w3.org/2000/svg">
<path fill-rule="evenodd" clip-rule="evenodd" d="M14.922 16.8H12.3517V12.8691C12.3517 12.5888 11.9255 12.5888 11.9255 12.8691V16.8H8.94695V12.8691C8.94695 12.5888 8.52071 12.5888 8.52071 12.8691V16.8H5.95047C5.36679 16.8 4.92391 16.2957 5.01095 15.7107L5.90567 9.6832H14.9655L15.8602 15.7107C15.946 16.288 15.5133 16.8 14.922 16.8ZM14.7441 8.18944C14.6749 7.71968 14.2807 7.38048 13.8045 7.38048H11.2369C10.9898 7.38048 11.0231 7.11936 11.0231 6.95424V4.5888C11.0244 4.26496 10.7594 4 10.4356 4C10.1117 4 9.84679 4.26496 9.84679 4.5888V6.95424C9.84679 7.12064 9.87879 7.38048 9.63303 7.38048H7.06663C6.59175 7.38048 6.19751 7.71968 6.12711 8.18944L5.96967 9.25696H14.9028L14.7441 8.18944Z" fill="white"/>
</svg>
