<svg width="136" height="135" viewBox="0 0 136 135" fill="none" xmlns="http://www.w3.org/2000/svg">
<g clip-path="url(#clip0_2153_570)">
<path d="M68.3765 135C105.656 135 135.876 104.779 135.876 67.5C135.876 30.2208 105.656 0 68.3765 0C31.0972 0 0.876465 30.2208 0.876465 67.5C0.876465 104.779 31.0972 135 68.3765 135Z" fill="#CF4037"/>
<path d="M42.9026 31.166H47.6026V107.804H42.9026V31.166Z" fill="white"/>
<path d="M42.9026 31.166H47.6026V107.804H42.9026V31.166Z" fill="white"/>
<path d="M23.6183 59.0757C23.6966 54.2042 32.0735 54.0598 32.0735 58.853L32.1517 63.0024H38.5458V59.166C38.952 46.3388 16.9715 46.3478 17.134 58.853V80.9358C16.9715 93.438 38.973 93.763 38.5668 80.9358V76.308H32.0735V81.2608C32.0735 86.054 23.7116 86.1353 23.6274 81.2608V58.856L23.6183 59.0757ZM60.1802 54.0838C60.1802 54.0838 61.2965 52.4409 64.2182 50.8161C67.9373 48.752 71.5721 50.8131 71.0365 50.5724C73.9612 51.8722 75.0715 55.0076 75.2792 58.519V84.6699H79.3984V89.4602H68.8069L68.8039 58.2031C68.8039 53.6535 61.119 53.798 61.0408 58.4258L61.0498 58.2031V89.4602H51.5535V84.6579L54.5565 84.6639V55.3837L50.9818 55.3626V50.5724H60.1561L60.1802 54.0838ZM108.134 80.8305C108.342 84.3419 109.452 87.4773 112.377 88.7771C111.82 88.5304 113.806 89.5173 115.828 89.4842C116.89 89.4662 122.065 89.4752 122.065 89.4752L122.068 84.6639C122.068 84.6639 119.451 84.6338 118.067 84.6488C116.309 84.6669 114.784 83.8304 114.663 81.345L114.672 55.4018L114.66 55.3596H120.913L120.91 50.6506H114.648L114.672 50.5724V40.5044H108.137L108.134 80.8305ZM96.366 76.308V81.2608C96.366 86.054 88.0071 86.1353 87.9228 81.2608V70.9521L101.653 70.9641C101.969 70.9641 102.272 70.8386 102.495 70.6151C102.719 70.3916 102.844 70.0886 102.844 69.7725L102.841 59.169C103.247 46.3418 81.267 46.3508 81.4295 58.856V80.9388C81.267 93.441 103.269 93.766 102.862 80.9388V76.308H96.366ZM87.9258 58.8199C88.0341 54.0237 96.369 54.0598 96.369 58.853L96.3479 66.0775H87.9258V58.8199Z" fill="white"/>
</g>
<defs>
<clipPath id="clip0_2153_570">
<rect width="135" height="135" fill="white" transform="translate(0.875)"/>
</clipPath>
</defs>
</svg>
