<svg width="37" height="37" viewBox="0 0 37 37" fill="none" xmlns="http://www.w3.org/2000/svg">
<path fill-rule="evenodd" clip-rule="evenodd" d="M19.3804 2.19237C20.9891 5.30018 22.6274 8.39517 24.2515 11.4962L34.6073 13.254C35.0573 13.3285 35.361 13.7546 35.2865 14.206C35.257 14.3804 35.1768 14.5309 35.0629 14.649L27.7182 22.1597L29.2468 32.5518C29.3129 33.0046 29.0007 33.4237 28.5479 33.4898C28.3594 33.5165 28.178 33.4785 28.0247 33.3942L18.6493 28.7451L9.23599 33.4111C8.82677 33.6136 8.33177 33.4448 8.13068 33.037C8.05334 32.8809 8.03084 32.7122 8.05334 32.5518L9.58193 22.1597L2.23577 14.6505C1.91655 14.3228 1.92218 13.7997 2.24843 13.4791C2.38624 13.3427 2.56062 13.2667 2.73922 13.2471L13.0471 11.4977L17.9183 2.19383C18.1292 1.79023 18.6284 1.63273 19.032 1.84367C19.1881 1.92523 19.3062 2.04898 19.3808 2.19383L19.3804 2.19237Z" fill="#FFB957"/>
</svg>
