<svg width="26" height="49" viewBox="0 0 26 49" fill="none" xmlns="http://www.w3.org/2000/svg">
<path d="M6.50558 36.8134C5.6106 37.0059 4.86807 37.4459 4.35556 38.1009C4.29056 38.1834 4.27806 38.2934 4.32306 38.3884C4.82306 39.4059 5.65305 40.3984 6.74303 41.2559C7.17303 41.5834 7.678 41.8634 8.33554 42.1509C8.95554 42.4209 9.48805 42.5609 10.013 42.5984C10.2105 42.6184 10.403 42.6309 10.5955 42.6309C11.4455 42.6309 12.1955 42.4334 12.8281 42.0359C13.3456 41.7084 13.7756 41.2558 14.1006 40.7184C15.2081 41.4684 16.3856 42.1084 17.6081 42.6184C17.2306 42.6634 16.8581 42.7209 16.4956 42.8034C15.433 43.0084 14.4731 43.4109 13.7256 43.9734C12.9256 44.5684 12.4131 45.3184 12.2031 46.2009C12.1781 46.3109 12.2231 46.4184 12.3131 46.4834C13.6056 47.3934 14.8981 47.9609 16.1456 48.1609C16.4856 48.2259 16.8231 48.2759 17.1631 48.3084C17.2781 48.3159 17.3881 48.3209 17.5031 48.3209C17.7281 48.3209 17.9506 48.3084 18.1806 48.2884C18.8531 48.2384 19.4731 48.1084 20.0356 47.9234H20.0481C21.9181 47.1684 22.9656 45.7659 23.0181 44.0184C23.6506 44.0884 24.2906 44.1209 24.9306 44.1209C25.3281 44.1209 25.6531 43.7934 25.6531 43.3984C25.6531 43.0009 25.3256 42.6759 24.9306 42.6759C24.3481 42.6759 23.7606 42.6434 23.1781 42.5809C23.4481 41.1984 23.128 39.5859 22.263 38.1334C21.3855 36.5584 20.3105 35.6234 18.878 35.2034C18.7755 35.1709 18.6605 35.2034 18.5905 35.2934C17.988 36.0234 17.5655 36.8284 17.3755 37.6159C17.1505 38.5309 17.228 39.4659 17.6055 40.3934C17.7405 40.7059 17.9255 41.0009 18.1355 41.2759C17.023 40.8084 15.9455 40.2259 14.9355 39.5409C15.288 39.0984 15.5755 38.5809 15.7606 37.9984C16.0231 37.1984 16.1306 36.3334 16.0731 35.4959V35.4884C16.0356 35.1109 15.9956 34.6809 15.9056 34.2983C15.8231 33.8958 15.6681 33.5433 15.5406 33.2434C15.2581 32.5134 14.7781 31.9634 14.3056 31.4759C14.2281 31.3934 14.1006 31.3734 13.9981 31.4184C13.1906 31.7959 12.5381 32.2959 12.0581 32.9084C11.4831 33.6509 11.1631 34.5283 11.1556 35.3583C11.1356 35.6334 11.1631 35.9158 11.2056 36.1959C10.4431 35.3134 9.76556 34.3784 9.18303 33.3983C10.2655 32.8483 11.1355 31.8058 11.633 30.4284C11.933 29.6483 11.978 28.9434 12.003 28.2209C12.003 27.8884 11.9455 27.5434 11.8505 27.1959C11.793 26.8434 11.683 26.5059 11.5305 26.1784C11.4855 26.0834 11.3905 26.0184 11.2755 26.0259C9.54054 26.0959 8.14553 26.9734 7.44799 28.4458C7.36549 28.6308 7.30049 28.8308 7.24299 29.0284C6.93549 28.0433 6.69299 27.0259 6.52549 25.9809C7.62552 25.8584 8.70047 25.2509 9.54552 24.2459C10.0955 23.6309 10.3705 22.9734 10.5755 22.4084C10.698 22.0809 10.768 21.7484 10.8005 21.4159C10.8205 21.2484 10.8205 21.0834 10.813 20.9434C10.8255 20.7759 10.8255 20.6109 10.813 20.4384C10.813 20.3234 10.7305 20.2284 10.6205 20.1959C9.91052 19.9709 9.20556 19.9209 8.53305 20.0484C8.16805 20.1134 7.81555 20.2334 7.47807 20.4059C7.15057 20.5859 6.84557 20.8209 6.56306 21.1159C6.45306 21.2309 6.36557 21.3534 6.26806 21.4684C6.31806 20.4884 6.44056 19.5109 6.62556 18.5434C6.87556 18.5934 7.13056 18.6209 7.39305 18.6209C8.16802 18.6209 8.97308 18.3909 9.69807 17.9484C10.8506 17.2509 11.6256 16.2334 11.9381 15.0109C11.9631 14.9009 11.9256 14.7934 11.8356 14.7284C10.6781 13.8709 9.30808 13.7234 8.06059 14.3259C7.99059 14.3634 7.92059 14.4084 7.8506 14.4534C8.10059 13.8459 8.3756 13.2384 8.68311 12.6559C8.78561 12.4634 8.90061 12.2784 9.01061 12.0934C9.29811 12.2609 9.61311 12.3884 9.95064 12.4634C10.2206 12.5209 10.5006 12.5534 10.7881 12.5534C11.0756 12.5534 11.4081 12.5209 11.7407 12.4584H11.7482C12.9457 12.1834 13.9057 11.5234 14.5332 10.5584C14.5907 10.4684 14.5907 10.3484 14.5332 10.2584C13.9507 9.41336 12.8182 8.60088 11.4032 8.84338C11.3782 8.84338 11.3457 8.85588 11.3207 8.86338C11.8457 8.26838 12.3957 7.70587 12.9907 7.18587C13.5207 7.74838 14.3032 8.12085 15.1657 8.19586C15.2757 8.20836 15.3757 8.20836 15.4732 8.20836C15.6582 8.20836 15.8307 8.19586 15.9607 8.17586C16.2357 8.16336 16.4982 8.11086 16.7482 8.04086C17.2607 7.88836 17.7007 7.59835 18.0657 7.34338C18.1607 7.27338 18.2007 7.15839 18.1682 7.04338C17.8482 5.98841 17.0232 5.22591 16.0057 5.00838C16.7807 4.55337 17.5807 4.1509 18.4132 3.82335C18.7257 3.91835 19.0407 3.98335 19.3607 4.00835C19.6032 4.04085 19.8482 4.05835 20.0782 4.05835C20.4807 4.05835 20.8658 4.00835 21.2182 3.90585C21.9032 3.75835 22.4657 3.52835 22.9457 3.19584C23.4057 2.88833 23.8857 2.53081 24.2507 2.02585C24.3282 1.92335 24.3157 1.77585 24.2307 1.68085C23.7757 1.19335 23.2007 0.848341 22.6107 0.700885C22.1107 0.585883 21.3382 0.475886 20.4858 0.663385H20.4733C19.7307 0.868384 19.0782 1.19338 18.5657 1.62339C18.2907 1.88589 18.0607 2.17339 17.8807 2.47337C16.9582 2.83837 16.0757 3.28585 15.2182 3.79087C15.6607 2.56086 15.5132 1.47337 14.8032 0.718361C14.7332 0.640864 14.6232 0.615859 14.5207 0.648358C13.8807 0.853357 13.2657 1.25086 12.7032 1.81335C12.4482 2.06835 12.2232 2.33835 12.0307 2.62084C11.8632 2.89584 11.7307 3.21084 11.6207 3.56087C11.3457 4.52836 11.5057 5.41085 12.0507 6.08337C11.4032 6.65336 10.8032 7.26839 10.2333 7.91338C10.2333 7.88838 10.2408 7.85588 10.2408 7.83088C10.2858 6.3009 9.76826 5.19338 8.73573 4.62339C8.64073 4.57339 8.52573 4.57839 8.43573 4.64839C7.11074 5.69838 6.29071 7.31841 6.34326 8.78337C6.34326 9.49338 6.56075 10.1409 6.97075 10.6659C7.18825 10.9484 7.46325 11.1784 7.77075 11.3633C7.64825 11.5733 7.51575 11.7783 7.40576 11.9958C7.06576 12.6358 6.77326 13.3009 6.49574 13.9658C6.47574 13.8708 6.45824 13.7733 6.43074 13.6783C6.02824 12.1108 5.02325 11.0408 3.74825 10.8183C3.63824 10.7983 3.53075 10.8433 3.47325 10.9333C2.43574 12.5133 2.13577 14.5233 2.71075 16.0608C3.18325 17.2958 4.07324 18.0708 5.20572 18.2683C5.00073 19.3058 4.87323 20.3558 4.81573 21.4108C4.73823 21.2758 4.66323 21.1408 4.57323 21.0133C4.33573 20.6733 4.06073 20.3533 3.76574 20.0783C3.49074 19.8033 3.19074 19.5733 2.87076 19.4008C2.20574 19.0308 1.48075 18.8883 0.778282 18.9983C0.67578 19.0183 0.585783 19.0933 0.560785 19.1958C0.495786 19.4383 0.438282 19.6883 0.388285 19.9508C0.355785 20.2008 0.343285 20.4558 0.338285 20.7133C0.330785 21.2258 0.363285 21.7233 0.440788 22.2183C0.588288 23.1209 1.00329 24.0484 1.60578 24.8283V24.8358C2.37327 25.7633 3.39829 26.2559 4.44828 26.2559C4.65327 26.2559 4.85827 26.2359 5.06328 26.1984C5.24328 27.3308 5.50578 28.4309 5.84331 29.5134C5.67081 29.3659 5.49081 29.2259 5.30581 29.0984C3.74332 27.9334 2.01583 27.6783 0.690836 28.4084C0.595834 28.4584 0.538337 28.5684 0.550836 28.6784C0.608336 29.2284 0.718336 29.7859 0.878336 30.3484C1.05084 30.8484 1.28833 31.3584 1.58336 31.8709C2.05586 32.7609 2.84339 33.5659 3.80339 34.1484C4.58342 34.6284 5.35341 34.7434 5.90842 34.7434C6.10092 34.7434 6.26591 34.7309 6.40091 34.7109C6.93091 34.6409 7.44341 34.4409 7.91093 34.1359C8.55093 35.2109 9.28591 36.2359 10.1259 37.1959C9.83841 37.0934 9.54341 37.0034 9.2484 36.9259C8.10338 36.6884 7.2509 36.6559 6.4909 36.8309L6.50558 36.8134Z" fill="#FFB957"/>
</svg>
