<svg width="26" height="49" viewBox="0 0 26 49" fill="none" xmlns="http://www.w3.org/2000/svg">
<path d="M19.8005 36.8134C20.6955 37.0059 21.438 37.4459 21.9505 38.1009C22.0155 38.1834 22.028 38.2934 21.983 38.3884C21.483 39.4059 20.6531 40.3984 19.5631 41.2559C19.1331 41.5834 18.6281 41.8634 17.9706 42.1509C17.3506 42.4209 16.8181 42.5609 16.2931 42.5984C16.0956 42.6184 15.9031 42.6309 15.7106 42.6309C14.8606 42.6309 14.1106 42.4334 13.478 42.0359C12.9605 41.7084 12.5305 41.2558 12.2055 40.7184C11.098 41.4684 9.92055 42.1084 8.69802 42.6184C9.07551 42.6634 9.44803 42.7209 9.81053 42.8034C10.8731 43.0084 11.8331 43.4109 12.5805 43.9734C13.3805 44.5684 13.893 45.3184 14.103 46.2009C14.128 46.3109 14.083 46.4184 13.993 46.4834C12.7005 47.3934 11.408 47.9609 10.1605 48.1609C9.82049 48.2259 9.48299 48.2759 9.14302 48.3084C9.02802 48.3159 8.91802 48.3209 8.80302 48.3209C8.57802 48.3209 8.35552 48.3084 8.12552 48.2884C7.453 48.2384 6.83304 48.1084 6.27054 47.9234H6.25804C4.38803 47.1684 3.34054 45.7659 3.28806 44.0184C2.65556 44.0884 2.01554 44.1209 1.37554 44.1209C0.978045 44.1209 0.653048 43.7934 0.653048 43.3984C0.653048 43.0009 0.980547 42.6759 1.37554 42.6759C1.95804 42.6759 2.54553 42.6434 3.12806 42.5809C2.85805 41.1984 3.17806 39.5859 4.04306 38.1334C4.92057 36.5584 5.99557 35.6234 7.42809 35.2034C7.53059 35.1709 7.64559 35.2034 7.71559 35.2934C8.31809 36.0234 8.74061 36.8284 8.93056 37.6159C9.15556 38.5309 9.07806 39.4659 8.70057 40.3934C8.56557 40.7059 8.38057 41.0009 8.17056 41.2759C9.28308 40.8084 10.3606 40.2259 11.3706 39.5409C11.0181 39.0984 10.7306 38.5809 10.5455 37.9984C10.283 37.1984 10.1755 36.3334 10.233 35.4959V35.4884C10.2705 35.1109 10.3105 34.6809 10.4005 34.2983C10.483 33.8958 10.638 33.5433 10.7655 33.2434C11.048 32.5134 11.528 31.9634 12.0005 31.4759C12.078 31.3934 12.2055 31.3734 12.3081 31.4184C13.1155 31.7959 13.768 32.2959 14.248 32.9084C14.823 33.6509 15.143 34.5283 15.1505 35.3584C15.1705 35.6334 15.143 35.9159 15.1005 36.1959C15.863 35.3134 16.5405 34.3784 17.1231 33.3983C16.0406 32.8483 15.1706 31.8058 14.6731 30.4284C14.3731 29.6483 14.3281 28.9434 14.3031 28.2209C14.3031 27.8884 14.3606 27.5434 14.4556 27.1959C14.5131 26.8434 14.6231 26.5059 14.7756 26.1784C14.8206 26.0834 14.9156 26.0184 15.0306 26.0259C16.7656 26.0959 18.1606 26.9734 18.8581 28.4459C18.9406 28.6308 19.0056 28.8309 19.0631 29.0284C19.3706 28.0433 19.6131 27.0259 19.7806 25.9809C18.6806 25.8584 17.6056 25.2509 16.7606 24.2459C16.2106 23.6309 15.9356 22.9734 15.7306 22.4084C15.6081 22.0809 15.5381 21.7484 15.5056 21.4159C15.4856 21.2484 15.4856 21.0834 15.4931 20.9434C15.4806 20.7759 15.4806 20.6109 15.4931 20.4384C15.4931 20.3234 15.5756 20.2284 15.6856 20.1959C16.3956 19.9709 17.1005 19.9209 17.7731 20.0484C18.1381 20.1134 18.4906 20.2334 18.828 20.4059C19.1555 20.5859 19.4605 20.8209 19.743 21.1159C19.853 21.2309 19.9405 21.3534 20.038 21.4684C19.988 20.4884 19.8655 19.5109 19.6805 18.5434C19.4305 18.5934 19.1755 18.6209 18.9131 18.6209C18.1381 18.6209 17.333 18.3909 16.608 17.9484C15.4555 17.2509 14.6805 16.2334 14.368 15.0109C14.343 14.9009 14.3805 14.7934 14.4705 14.7284C15.628 13.8709 16.998 13.7234 18.2455 14.3259C18.3155 14.3634 18.3855 14.4084 18.4555 14.4534C18.2055 13.8459 17.9305 13.2384 17.623 12.6559C17.5205 12.4634 17.4055 12.2784 17.2955 12.0934C17.008 12.2609 16.693 12.3884 16.3555 12.4634C16.0855 12.5209 15.8055 12.5534 15.518 12.5534C15.2305 12.5534 14.898 12.5209 14.5654 12.4584H14.5579C13.3604 12.1834 12.4004 11.5234 11.7729 10.5584C11.7154 10.4684 11.7154 10.3484 11.7729 10.2584C12.3554 9.41336 13.4879 8.60088 14.9029 8.84338C14.9279 8.84338 14.9604 8.85588 14.9854 8.86338C14.4604 8.26838 13.9104 7.70587 13.3154 7.18587C12.7854 7.74838 12.0029 8.12085 11.1404 8.19586C11.0304 8.20836 10.9304 8.20836 10.8329 8.20836C10.6479 8.20836 10.4754 8.19586 10.3454 8.17586C10.0704 8.16336 9.80792 8.11086 9.5579 8.04086C9.0454 7.88836 8.60538 7.59835 8.24039 7.34339C8.14539 7.27338 8.10539 7.15839 8.13789 7.04339C8.45789 5.98841 9.28292 5.22591 10.3004 5.00838C9.52541 4.55338 8.72541 4.1509 7.8929 3.82335C7.5804 3.91835 7.2654 3.98335 6.94538 4.00835C6.70288 4.04085 6.45788 4.05835 6.22787 4.05835C5.82537 4.05835 5.44035 4.00835 5.08791 3.90585C4.40291 3.75835 3.84042 3.52835 3.36042 3.19584C2.90042 2.88834 2.42039 2.53081 2.05539 2.02585C1.9779 1.92335 1.99039 1.77585 2.07539 1.68085C2.5304 1.19335 3.10541 0.848341 3.69536 0.700885C4.19536 0.585883 4.96788 0.475886 5.82036 0.663385H5.83286C6.57538 0.868384 7.22786 1.19338 7.74038 1.62339C8.01538 1.88589 8.24537 2.17339 8.42537 2.47337C9.34786 2.83837 10.2304 3.28585 11.0879 3.79087C10.6454 2.56086 10.7929 1.47337 11.5029 0.718361C11.5729 0.640864 11.6829 0.615859 11.7854 0.648358C12.4254 0.853357 13.0404 1.25086 13.6029 1.81335C13.8579 2.06835 14.0829 2.33835 14.2754 2.62084C14.4429 2.89584 14.5754 3.21084 14.6854 3.56087C14.9604 4.52836 14.8004 5.41085 14.2554 6.08337C14.9029 6.65336 15.5029 7.26839 16.0728 7.91338C16.0728 7.88838 16.0653 7.85588 16.0653 7.83088C16.0203 6.3009 16.5378 5.19338 17.5704 4.62339C17.6654 4.57339 17.7804 4.57839 17.8704 4.64839C19.1954 5.69838 20.0154 7.31841 19.9629 8.78337C19.9629 9.49338 19.7454 10.1409 19.3354 10.6659C19.1179 10.9484 18.8429 11.1784 18.5354 11.3633C18.6579 11.5733 18.7904 11.7783 18.9003 11.9958C19.2403 12.6358 19.5328 13.3009 19.8104 13.9658C19.8304 13.8708 19.8479 13.7733 19.8754 13.6783C20.2779 12.1108 21.2829 11.0408 22.5579 10.8183C22.6679 10.7983 22.7754 10.8433 22.8329 10.9333C23.8704 12.5133 24.1703 14.5233 23.5954 16.0608C23.1229 17.2958 22.2329 18.0708 21.1004 18.2683C21.3054 19.3058 21.4329 20.3558 21.4904 21.4108C21.5679 21.2758 21.6429 21.1408 21.7329 21.0133C21.9704 20.6733 22.2454 20.3533 22.5404 20.0783C22.8154 19.8033 23.1154 19.5733 23.4353 19.4008C24.1004 19.0308 24.8254 18.8883 25.5278 18.9983C25.6303 19.0183 25.7203 19.0933 25.7453 19.1958C25.8103 19.4383 25.8678 19.6883 25.9178 19.9508C25.9503 20.2008 25.9628 20.4558 25.9678 20.7133C25.9753 21.2258 25.9428 21.7233 25.8653 22.2183C25.7178 23.1209 25.3028 24.0484 24.7003 24.8283V24.8358C23.9328 25.7633 22.9078 26.2559 21.8578 26.2559C21.6528 26.2559 21.4478 26.2359 21.2428 26.1984C21.0628 27.3308 20.8003 28.4309 20.4628 29.5134C20.6353 29.3659 20.8153 29.2259 21.0003 29.0984C22.5628 27.9334 24.2903 27.6783 25.6153 28.4084C25.7103 28.4584 25.7678 28.5684 25.7553 28.6784C25.6978 29.2284 25.5878 29.7859 25.4278 30.3484C25.2553 30.8484 25.0178 31.3584 24.7227 31.8709C24.2502 32.7609 23.4627 33.5659 22.5027 34.1484C21.7227 34.6284 20.9527 34.7434 20.3977 34.7434C20.2052 34.7434 20.0402 34.7309 19.9052 34.7109C19.3752 34.6409 18.8627 34.4409 18.3952 34.1359C17.7552 35.2109 17.0202 36.2359 16.1802 37.1959C16.4677 37.0934 16.7627 37.0034 17.0577 36.9259C18.2027 36.6884 19.0552 36.6559 19.8152 36.8309L19.8005 36.8134Z" fill="#FFB957"/>
</svg>
