<svg width="30" height="30" viewBox="0 0 30 30" fill="none" xmlns="http://www.w3.org/2000/svg">
<path d="M28.4023 16.6885C28.74 16.6885 29.0113 16.4134 29.0113 16.0796V14.0388C29.0113 13.705 28.74 13.4299 28.4023 13.4299H23.4408V11.2979C23.4408 10.7698 23.0131 10.3421 22.4849 10.3421H20.4025V8.07443C20.4025 3.61994 16.7789 0 12.328 0C7.87757 0 4.25362 3.61994 4.25362 8.07443V10.3421H2.17116C1.64306 10.3421 1.21533 10.7698 1.21533 11.2979V28.2042C1.21533 28.7323 1.64302 29.16 2.17116 29.16H22.4857C23.0138 29.16 23.4416 28.7323 23.4416 28.2042V26.0761H28.4031C28.7409 26.0761 29.0121 25.8009 29.0121 25.4671V23.4264C29.0121 23.0887 28.7409 22.8174 28.4031 22.8174H23.4416V21.3817H28.4031C28.7409 21.3817 29.0121 21.1066 29.0121 20.7728V18.732C29.0121 18.3943 28.7409 18.1231 28.4031 18.1231H23.4416V16.6874H28.4031L28.4023 16.6885ZM25.3706 13.9515H28.4023C28.4506 13.9515 28.4897 13.9893 28.4897 14.0389V16.0796C28.4897 16.1252 28.4519 16.167 28.4023 16.167H25.3706V13.9515ZM7.47986 10.3422V8.07459C7.47986 5.40013 9.65359 3.22386 12.3269 3.22386C15.0014 3.22386 17.174 5.4002 17.174 8.07459V10.3422H7.47885H7.47986ZM12.9461 14.0389V25.4683C12.9461 25.5139 12.9044 25.5556 12.8588 25.5556H8.84627C8.79803 25.5556 8.7589 25.5139 8.7589 25.4683V14.0389C8.7589 13.9907 8.79672 13.9516 8.84627 13.9516H12.8588C12.9044 13.9516 12.9461 13.9894 12.9461 14.0389ZM20.9892 25.5557H17.9574C17.9092 25.5557 17.8701 25.514 17.8701 25.4684V23.4276C17.8701 23.3794 17.9079 23.3402 17.9574 23.3402H20.9892V25.5557ZM20.9892 20.8615H17.9574C17.9092 20.8615 17.8701 20.8198 17.8701 20.7742V18.7334C17.8701 18.6852 17.9079 18.6461 17.9574 18.6461H20.9892V20.8615ZM20.9892 16.1674H17.9574C17.9092 16.1674 17.8701 16.1257 17.8701 16.08V14.0393C17.8701 13.991 17.9079 13.9519 17.9574 13.9519H20.9892V16.1674ZM4.77425 8.07626C4.77425 3.9102 8.16085 0.523596 12.3269 0.523596C16.493 0.523596 19.8796 3.9102 19.8796 8.07626V10.3439H17.6954V8.07626C17.6954 5.11361 15.2856 2.70377 12.3269 2.70377C9.3682 2.70377 6.95843 5.11355 6.95843 8.07626V10.3439H4.77425V8.07626ZM25.3706 23.3408H28.4023C28.4506 23.3408 28.4897 23.3786 28.4897 23.4282V25.4689C28.4897 25.5146 28.4519 25.5563 28.4023 25.5563H25.3706V23.3408ZM24.849 23.3408V25.5563H23.1864C23.1864 25.5563 23.1864 25.5524 23.1799 25.5524C23.1734 25.5524 23.176 25.5524 23.1734 25.5563H21.5108V23.3408H24.849ZM25.3706 18.6467H28.4023C28.4506 18.6467 28.4897 18.6845 28.4897 18.734V20.7748C28.4897 20.8204 28.4519 20.8621 28.4023 20.8621H25.3706V18.6467ZM24.849 18.6467V20.8621H21.5108V18.6467H24.849ZM21.5108 16.1678V13.9523H24.849V16.1678H21.5108Z" fill="white" fill-opacity="0.8"/>
</svg>
