<svg width="33" height="36" viewBox="0 0 33 36" fill="none" xmlns="http://www.w3.org/2000/svg">
<path d="M32.1663 6.38719C32.164 6.14676 32.0166 5.93128 31.7943 5.84056L16.7089 0.0340227C16.5728 -0.0113409 16.4277 -0.0113409 16.2916 0.0340227L1.20621 5.84056C0.983926 5.93128 0.836493 6.14676 0.834229 6.38719V13.2958C0.850106 21.7995 5.38191 29.654 12.7376 33.9224L16.2102 35.9206V35.9183C16.3894 36.0272 16.6117 36.0272 16.7909 35.9183L20.2635 33.9201V33.9224C27.6192 29.6536 32.1512 21.7989 32.1669 13.2958L32.1663 6.38719ZM16.5002 5.80654C19.0837 5.80654 21.4131 7.36251 22.402 9.74865C23.3909 12.1371 22.8443 14.8838 21.0162 16.7095C19.1903 18.5377 16.4435 19.0843 14.0553 18.0954C11.6692 17.1065 10.1132 14.7771 10.1132 12.1936C10.12 8.66887 12.9755 5.8135 16.5002 5.80654ZM19.6825 32.9114L16.5002 34.7464L13.318 32.9114C10.7164 31.4053 8.44368 29.3958 6.62885 27.0004C7.85821 24.5462 9.95855 22.6364 12.5196 21.6452C15.0804 20.6563 17.9201 20.6563 20.4809 21.6452C23.0417 22.6364 25.142 24.5462 26.3716 27.0004C24.5571 29.3956 22.2844 31.4052 19.6825 32.9114Z" fill="#292A2C"/>
</svg>
