<svg width="35" height="36" viewBox="0 0 35 36" fill="none" xmlns="http://www.w3.org/2000/svg">
<path d="M33.5642 20.6036C33.9811 20.6036 34.316 20.2639 34.316 19.8518V17.3324C34.316 16.9203 33.9811 16.5806 33.5642 16.5806H27.4388V13.9485C27.4388 13.2965 26.9108 12.7685 26.2588 12.7685H23.6878V9.96891C23.6878 4.46955 19.2142 0.000488281 13.7194 0.000488281C8.22498 0.000488281 3.75098 4.46955 3.75098 9.96891V12.7685H1.18003C0.528053 12.7685 0 13.2965 0 13.9485V34.8205C0 35.4724 0.528012 36.0005 1.18003 36.0005H26.2598C26.9117 36.0005 27.4398 35.4725 27.4398 34.8205V32.1932H33.5652C33.9821 32.1932 34.317 31.8535 34.317 31.4414V28.922C34.317 28.505 33.9821 28.1702 33.5652 28.1702H27.4398V26.3977H33.5652C33.9821 26.3977 34.317 26.058 34.317 25.6459V23.1265C34.317 22.7095 33.9821 22.3747 33.5652 22.3747H27.4398V20.6022H33.5652L33.5642 20.6036ZM29.8213 17.2245H33.5642C33.6238 17.2245 33.6721 17.2712 33.6721 17.3324V19.8518C33.6721 19.9082 33.6254 19.9597 33.5642 19.9597H29.8213V17.2245ZM7.73398 12.7687V9.96912C7.73398 6.66732 10.4176 3.98056 13.718 3.98056C17.0198 3.98056 19.702 6.6674 19.702 9.96912V12.7687H7.73274H7.73398ZM14.4825 17.3325V31.4428C14.4825 31.4991 14.431 31.5506 14.3746 31.5506H9.42091C9.36135 31.5506 9.31305 31.4991 9.31305 31.4428V17.3325C9.31305 17.273 9.35974 17.2247 9.42091 17.2247H14.3746C14.431 17.2247 14.4825 17.2713 14.4825 17.3325ZM24.4122 31.5508H20.6693C20.6097 31.5508 20.5614 31.4992 20.5614 31.4429V28.9235C20.5614 28.8639 20.6081 28.8156 20.6693 28.8156H24.4122V31.5508ZM24.4122 25.7555H20.6693C20.6097 25.7555 20.5614 25.704 20.5614 25.6476V23.1282C20.5614 23.0686 20.6081 23.0203 20.6693 23.0203H24.4122V25.7555ZM24.4122 19.9602H20.6693C20.6097 19.9602 20.5614 19.9087 20.5614 19.8524V17.3329C20.5614 17.2734 20.6081 17.2251 20.6693 17.2251H24.4122V19.9602ZM4.39372 9.97118C4.39372 4.82789 8.57471 0.646903 13.718 0.646903C18.8613 0.646903 23.0423 4.82789 23.0423 9.97118V12.7707H20.3458V9.97118C20.3458 6.31359 17.3707 3.33848 13.718 3.33848C10.0653 3.33848 7.09024 6.31351 7.09024 9.97118V12.7707H4.39372V9.97118ZM29.8213 28.8163H33.5642C33.6238 28.8163 33.6721 28.863 33.6721 28.9242V31.4436C33.6721 31.5 33.6254 31.5515 33.5642 31.5515H29.8213V28.8163ZM29.1774 28.8163V31.5515H27.1248C27.1248 31.5515 27.1248 31.5466 27.1167 31.5466C27.1087 31.5466 27.1119 31.5466 27.1087 31.5515H25.0561V28.8163H29.1774ZM29.8213 23.021H33.5642C33.6238 23.021 33.6721 23.0677 33.6721 23.1289V25.6483C33.6721 25.7047 33.6254 25.7562 33.5642 25.7562H29.8213V23.021ZM29.1774 23.021V25.7562H25.0561V23.021H29.1774ZM25.0561 19.9607V17.2256H29.1774V19.9607H25.0561Z" fill="#292A2C"/>
</svg>
