<svg width="30" height="30" viewBox="0 0 30 30" fill="none" xmlns="http://www.w3.org/2000/svg">
<path d="M27.2696 5.17362C27.2677 4.97888 27.1483 4.80434 26.9683 4.73085L14.7491 0.0275584C14.6389 -0.00918612 14.5213 -0.00918612 14.4111 0.0275584L2.19193 4.73085C2.01188 4.80434 1.89246 4.97887 1.89062 5.17362V10.7696C1.90349 17.6576 5.57424 24.0197 11.5324 27.4771L14.3452 29.0957V29.0939C14.4903 29.182 14.6704 29.182 14.8155 29.0939L17.6283 27.4753V27.4771C23.5864 24.0194 27.2574 17.6571 27.2701 10.7696L27.2696 5.17362ZM14.5801 4.70329C16.6727 4.70329 18.5595 5.96364 19.3605 7.89641C20.1615 9.83101 19.7188 12.0559 18.238 13.5347C16.759 15.0155 14.5342 15.4583 12.5997 14.6572C10.6669 13.8562 9.40657 11.9694 9.40657 9.87682C9.41209 7.02178 11.7251 4.70894 14.5801 4.70329ZM17.1577 26.6583L14.5801 28.1446L12.0025 26.6583C9.89515 25.4383 8.05428 23.8106 6.58427 21.8703C7.58005 19.8824 9.28133 18.3355 11.3558 17.5326C13.43 16.7316 15.7302 16.7316 17.8044 17.5326C19.8787 18.3355 21.5799 19.8824 22.5759 21.8703C21.1062 23.8104 19.2652 25.4382 17.1577 26.6583Z" fill="white" fill-opacity="0.8"/>
</svg>
