<svg width="87" height="143" viewBox="0 0 87 143" fill="none" xmlns="http://www.w3.org/2000/svg">
<path d="M78.8962 33.7973H78.1148V12.39C78.1148 10.7629 77.7943 9.15177 77.1717 7.64855C76.549 6.14533 75.6364 4.77947 74.4859 3.62895C73.3353 2.47843 71.9695 1.56579 70.4663 0.943136C68.963 0.32048 67.3519 1.37859e-06 65.7248 0H20.3705C17.0844 -6.26429e-06 13.933 1.30535 11.6094 3.62892C9.28585 5.95249 7.98048 9.10393 7.98047 12.39V129.832C7.98047 131.459 8.30094 133.07 8.9236 134.574C9.54625 136.077 10.4589 137.443 11.6094 138.593C12.7599 139.744 14.1258 140.656 15.629 141.279C17.1322 141.902 18.7434 142.222 20.3704 142.222H65.7248C69.0108 142.222 72.1622 140.917 74.4858 138.593C76.8094 136.27 78.1148 133.118 78.1148 129.832V49.0354H78.8962V33.7973Z" fill="#5E646B"/>
<path d="M66.2244 3.22314H60.3041C60.5764 3.89063 60.6803 4.61483 60.6068 5.33194C60.5332 6.04905 60.2844 6.73707 59.8823 7.33538C59.4802 7.9337 58.9372 8.42394 58.301 8.76293C57.6648 9.10193 56.955 9.27926 56.2341 9.27932H30.2512C29.5303 9.27926 28.8205 9.10193 28.1843 8.76294C27.5481 8.42394 27.0051 7.9337 26.603 7.33539C26.2009 6.73707 25.9521 6.04905 25.8785 5.33194C25.805 4.61483 25.9089 3.89063 26.1812 3.22314H20.6516C19.4366 3.22314 18.2334 3.46247 17.1108 3.92746C15.9882 4.39245 14.9682 5.074 14.109 5.93319C13.2498 6.79238 12.5682 7.81239 12.1032 8.93498C11.6383 10.0576 11.3989 11.2608 11.3989 12.4758V129.746C11.3989 130.961 11.6383 132.164 12.1032 133.287C12.5682 134.409 13.2498 135.429 14.109 136.288C14.9682 137.148 15.9882 137.829 17.1108 138.294C18.2334 138.759 19.4365 138.998 20.6516 138.998H66.2244C67.4395 138.998 68.6426 138.759 69.7652 138.294C70.8878 137.829 71.9078 137.148 72.767 136.288C73.6262 135.429 74.3078 134.409 74.7728 133.287C75.2377 132.164 75.4771 130.961 75.4771 129.746V12.4758C75.4771 11.2608 75.2377 10.0576 74.7728 8.93498C74.3078 7.81239 73.6262 6.79238 72.767 5.93319C71.9078 5.074 70.8878 4.39245 69.7652 3.92746C68.6426 3.46247 67.4395 3.22314 66.2244 3.22314Z" fill="white"/>
<path d="M43.4376 111.995C67.4276 111.995 86.8753 92.5477 86.8753 68.5578C86.8753 44.5678 67.4276 25.1201 43.4376 25.1201C19.4477 25.1201 0 44.5678 0 68.5578C0 92.5477 19.4477 111.995 43.4376 111.995Z" fill="#5E646B"/>
<path d="M39.1333 85.1277C38.1561 85.1294 37.2048 84.8132 36.423 84.227L36.3745 84.1906L26.1661 76.3815C25.6933 76.019 25.2965 75.567 24.9984 75.0512C24.7003 74.5354 24.5067 73.9659 24.4287 73.3753C24.3507 72.7847 24.3898 72.1845 24.5437 71.6089C24.6977 71.0334 24.9635 70.4939 25.3259 70.0211C25.6884 69.5483 26.1404 69.1515 26.6562 68.8534C27.172 68.5553 27.7415 68.3617 28.3321 68.2837C28.9227 68.2057 29.5229 68.2448 30.0985 68.3987C30.674 68.5527 31.2135 68.8185 31.6863 69.1809L38.2985 74.2515L53.9235 53.867C54.2858 53.3944 54.7377 52.9978 55.2533 52.6998C55.7689 52.4018 56.3381 52.2083 56.9285 52.1304C57.5188 52.0524 58.1188 52.0914 58.6941 52.2453C59.2693 52.3992 59.8087 52.6649 60.2813 53.0272L60.2826 53.0282L60.1856 53.1629L60.2852 53.0282C61.2387 53.761 61.8625 54.8421 62.0197 56.0342C62.177 57.2264 61.8548 58.4323 61.124 59.3872L42.7456 83.3532C42.3204 83.9054 41.7738 84.3522 41.148 84.659C40.5222 84.9659 39.8342 85.1244 39.1373 85.1224L39.1333 85.1277Z" fill="white"/>
</svg>
