<svg xmlns="http://www.w3.org/2000/svg" viewBox="194.7649 135.3653 60 263.7222" width="60px" height="263.7222px">
  <defs>
    <linearGradient id="top-to-bottom" x1="0%" y1="0%" x2="0%" y2="100%">
      <stop offset="0" stop-color="#D9EBFF">
        <animate dur="1s" attributeName="offset" fill="freeze" from="0" to="1" />
      </stop>
      <stop offset="0" stop-color="#5E646B">
        <animate dur="1s" attributeName="offset" fill="freeze" from="0" to="1" />
      </stop>
    </linearGradient>
  </defs>

  <g transform="matrix(0.9999999999999999, 0, 0, 1.0143159627914429, 164.76493835449216, 104.93585205078125)">
    <path fill="url(#top-to-bottom)" d="M 90 260 C 90 276.569 76.569 290 60 290 C 43.431 290 30 276.569 30 260 C 30 243.431 43.431 230 60 230 C 76.569 230 90 243.431 90 260 Z M 90 160 C 90 176.569 76.569 190 60 190 C 43.431 190 30 176.569 30 160 C 30 143.431 43.431 130 60 130 C 76.569 130 90 143.431 90 160 Z M 90 60 C 90 76.569 76.569 90 60 90 C 43.431 90 30 76.569 30 60 C 30 43.431 43.431 30 60 30 C 76.569 30 90 43.431 90 60 Z M 57 190 L 63 190 L 63 230 L 57 230 L 57 190 Z M 57 90 L 63 90 L 63 130 L 57 130 L 57 90 Z"/>
    
    <circle cx="60" cy="60" r="6" fill="#2b2b2b" opacity="0">
      <animate attributeName="opacity" from="0" to="1" dur="0.25s" begin="0.15s" fill="freeze" />
    </circle>

    <circle cx="60" cy="160" r="6" fill="#2b2b2b" opacity="0">
      <animate attributeName="opacity" from="0" to="1" dur="0.25s" begin="0.6s" fill="freeze" />
    </circle>

    <circle cx="60" cy="260" r="6" fill="#2b2b2b" opacity="0">
      <animate attributeName="opacity" from="0" to="1" dur="0.25s" begin="0.9s" fill="freeze" />
    </circle>
  </g>
</svg>
