<svg width="10" height="10" viewBox="0 0 10 10" fill="none" xmlns="http://www.w3.org/2000/svg">
<path fill-rule="evenodd" clip-rule="evenodd" d="M5.26634 0.293786C5.71679 1.16397 6.17551 2.03057 6.63026 2.89886L9.52988 3.39105C9.65588 3.41192 9.74093 3.53122 9.72006 3.65761C9.71179 3.70644 9.68934 3.74857 9.65745 3.78165L7.60093 5.88464L8.02894 8.79443C8.04744 8.92122 7.96003 9.03856 7.83324 9.05707C7.78048 9.06455 7.72969 9.05392 7.68677 9.03029L5.06164 7.72856L2.42592 9.03503C2.31134 9.09173 2.17274 9.04448 2.11643 8.93029C2.09478 8.88658 2.08848 8.83933 2.09478 8.79444L2.52278 5.88465L0.465857 3.78206C0.376476 3.69031 0.378051 3.54384 0.469401 3.45407C0.507988 3.41587 0.556814 3.39461 0.606822 3.3891L3.49303 2.89927L4.85695 0.294194C4.91602 0.181187 5.0558 0.137087 5.16881 0.19615C5.21251 0.218987 5.24559 0.253637 5.26646 0.294194L5.26634 0.293786Z" fill="#2E4053"/>
</svg>
