<svg width="136" height="93" viewBox="0 0 136 93" fill="none" xmlns="http://www.w3.org/2000/svg">
<g clip-path="url(#clip0_2153_579)">
<path d="M31.8369 90.3756C31.8369 91.0689 31.6813 91.8102 31.1481 92.3777H44.9936V85.4263C44.0326 85.8679 42.8474 86.0853 41.7033 86.0853H38.7013V83.7972H40.2755C41.1313 83.7972 41.8909 83.8795 42.7055 84.2273V78.2187C41.8909 78.5665 41.1313 78.6489 40.2755 78.6489H38.7013V76.0747H41.7033C42.8474 76.0747 44.0326 76.2921 44.9936 76.7314V70.0684H31.123C31.6561 70.5306 31.8369 71.3772 31.8369 72.0705V90.3756ZM19.8242 78.6489V76.3607H20.1143C20.8977 76.3607 21.8068 76.4866 22.3983 76.8023V70.0684H12.6797V92.3777H20.5392C20.0061 91.9155 19.8242 91.0689 19.8242 90.3756V84.0832H23.5424V90.3756C23.5424 91.0689 23.3616 91.9155 22.8273 92.3777H30.6928V70.0684H23.5424V78.6489H19.8242ZM2.69494 76.3607H4.37924V90.3756C4.37924 91.0689 4.19756 91.9155 3.66419 92.3777H11.5297V70.0684H0.375L0.375 76.8023C1.00222 76.4866 1.91148 76.3607 2.69494 76.3607ZM121.067 78.6489H112.507C112.07 78.6489 111.567 78.6077 111.063 78.4475V83.9985C111.567 83.8406 112.07 83.7972 112.507 83.7972H114.782V85.5133C114.5 85.765 113.887 85.9045 113.26 85.9045C110.658 85.9045 108.745 83.8521 108.745 81.3672C108.745 78.8777 110.606 76.6467 113.207 76.6467C114.782 76.6467 116.557 77.1616 118.5 78.0791V70.0684H112.779C106.604 70.0684 101.682 74.8483 101.682 81.31C101.682 87.6367 106.638 92.9497 113.065 92.9497C116.607 92.9497 119.907 91.5082 121.63 89.7463C121.287 89.1148 121.067 88.4879 121.067 87.7305V78.6489ZM132.084 76.0747C133.228 76.0747 134.414 76.2921 135.375 76.7314V70.0684H121.504C122.037 70.5306 122.218 71.3772 122.218 72.0705V90.3756C122.218 91.0689 122.062 91.8102 121.529 92.3777H135.375V85.4263C134.414 85.8679 133.228 86.0853 132.084 86.0853H129.082V83.7972H130.657C131.512 83.7972 132.272 83.8795 133.087 84.2273V78.2187C132.272 78.5665 131.512 78.6489 130.657 78.6489H129.082V76.0747H132.084ZM98.9065 82.3099C100.099 80.9942 100.824 79.269 100.824 77.514C100.824 72.3748 96.9982 70.0706 92.891 70.0706L84.0382 70.0684C84.569 70.5306 84.7521 71.3703 84.7521 72.0613L84.7498 90.3756C84.7498 91.0643 84.5644 91.8148 84.0336 92.3777H92.5546C92.0215 91.8148 91.9002 91.0277 91.9002 90.3756V85.8359C94.3439 86.3004 95.9708 88.5679 95.9708 90.3847C95.9708 91.0734 95.8083 91.8148 95.2775 92.3777H103.776C103.242 91.8148 103.105 90.9979 103.055 90.3092C102.769 86.3713 101.414 83.5935 98.9065 82.3099ZM91.9002 80.1087V76.045C93.0443 76.045 94.5041 76.3607 94.5041 78.0768C94.5041 79.7929 93.0443 80.1087 91.9002 80.1087ZM60.7243 82.3671L58.4362 76.0747H61.8684L64.1565 70.0684H48.1396C48.6407 70.574 49.1098 71.1392 49.4553 71.8005L58.3149 92.3777H63.1543L70.4489 75.2167V90.3756C70.4443 91.0872 70.2682 91.9155 69.7327 92.3777H83.6057V85.4263C82.6561 85.8679 81.4617 86.3713 80.3176 86.3713H77.3133V83.7972H78.8853C79.7456 83.7972 80.503 83.8795 81.3176 84.2273V78.2187C80.503 78.5665 79.7456 78.6489 78.8853 78.6489H77.3133V76.3607H80.3176C81.4617 76.3607 82.6561 76.5781 83.6057 77.0197V70.0684H65.3006L60.7243 82.3671Z" fill="#FA4B2A"/>
<path d="M98.3827 0.0510101L67.875 52.9321L45.0051 13.2719L75.5014 13.2714L79.3157 6.66121H33.553L64.0561 59.5423H71.6893L102.197 6.66121L98.3827 0.0507812V0.0510101Z" fill="#DCE1E6"/>
<path d="M90.7564 0.0512389L67.875 39.7115L52.6292 13.2721L45.0051 13.2716L67.875 52.9319L98.3828 0.0507812H90.7564V0.0512389Z" fill="#FA4B2A"/>
<path d="M33.553 6.6612H79.3157L64.0607 33.1006L67.875 39.711L90.7564 0.0507812H37.3673L33.553 6.6612Z" fill="#5564BE"/>
</g>
<defs>
<clipPath id="clip0_2153_579">
<rect width="135" height="92.8983" fill="white" transform="translate(0.375 0.0507812)"/>
</clipPath>
</defs>
</svg>
